<?xml version="1.0" encoding="utf-8"?>
<!-- Generator: Adobe Illustrator 19.2.1, SVG Export Plug-In . SVG Version: 6.00 Build 0)  -->
<svg version="1.1" id="Layer_1" xmlns="http://www.w3.org/2000/svg" xmlns:xlink="http://www.w3.org/1999/xlink" x="0px" y="0px"
	 viewBox="0 0 1113.6 268.5" style="enable-background:new 0 0 1113.6 268.5;" xml:space="preserve">
<style type="text/css">
	.st0{fill:#028BB6;}
	.st1{fill:#E9D93E;}
</style>
<g>
	<g>
		<path class="st0" d="M145.4,88.2h12v7.5c1.2-1.8,6.3-9.1,15.6-9.1c3.7,0,7.6,1.3,10.6,2.8l-5.6,10.8c-2.7-1.8-5.1-2.3-7-2.3
			c-4.8,0-7.8,2-9.6,4.3c-2,2.7-4,7.3-4,18.6v36.4h-12V88.2z"/>
		<path class="st0" d="M251.6,139.5c-2,3.8-5,8-8.5,11.1c-6.3,5.6-14.1,8.5-22.9,8.5c-16.6,0-34-10.5-34-36
			c0-20.6,12.6-36.5,33.4-36.5c13.4,0,21.9,6.6,26.1,12.6c4.3,6.1,6.8,16.8,6.5,25.9h-53.6c0.2,14.3,10,23.4,21.9,23.4
			c5.6,0,10.1-1.7,14.1-5c3.2-2.7,5.6-6.1,7.1-9.5L251.6,139.5z M239.8,115.1c-2-10.8-10.1-17.9-20.3-17.9s-18.4,7.6-20.3,17.9
			H239.8z"/>
		<path class="st0" d="M298.7,104.1c-1.7-4-5.1-7-9.6-7c-4.3,0-8.3,2.5-8.3,7.8c0,5,3.3,6.5,11.1,9.8c10,4.2,14.6,7.3,17.3,10.6
			c3,3.7,3.7,7.3,3.7,11.1c0,14.4-10.5,22.6-23.7,22.6c-2.8,0-18.3-0.3-24.1-17.6l10.3-4.3c1.3,3.7,5.3,11.3,13.9,11.3
			c7.8,0,11.3-5.8,11.3-11c0-6.5-4.6-8.6-11.1-11.5c-8.3-3.7-13.6-6.3-16.8-10.1c-2.7-3.3-3.2-6.6-3.2-10.1
			c0-12.1,8.5-19.3,20.1-19.3c3.7,0,13.4,0.7,18.9,12.4L298.7,104.1z"/>
		<path class="st0" d="M324.5,122.9c0-20.9,15.4-36.4,36.5-36.4s36.5,15.4,36.5,36.4s-15.6,36.2-36.5,36.2S324.5,143.8,324.5,122.9z
			 M336.8,122.9c0,16.9,12,25.6,24.2,25.6c12.4,0,24.2-8.8,24.2-25.6c0-16.9-11.6-25.7-24.2-25.7
			C348.4,97.2,336.8,106.1,336.8,122.9z"/>
		<path class="st0" d="M427.7,128.4c0,4.8,0,10.5,3.3,14.8c1.8,2.3,5.5,5.3,12.1,5.3c6.6,0,10.3-3,12.1-5.3c3.3-4.3,3.3-10,3.3-14.8
			V88.2h12v41.5c0,8.5-0.8,14.8-6.3,20.8c-6.1,6.5-14.3,8.6-21.1,8.6c-6.8,0-14.9-2.2-21.1-8.6c-5.5-6-6.3-12.3-6.3-20.8V88.2h12
			V128.4z"/>
		<path class="st0" d="M493.1,88.2h12v7.5c1.2-1.8,6.3-9.1,15.6-9.1c3.7,0,7.6,1.3,10.6,2.8l-5.6,10.8c-2.7-1.8-5.1-2.3-7-2.3
			c-4.8,0-7.8,2-9.6,4.3c-2,2.7-4,7.3-4,18.6v36.4h-12V88.2z"/>
		<path class="st0" d="M592.2,107.4c-6.3-8-15.4-10.3-21.6-10.3c-12.8,0-24.4,9-24.4,25.7c0,16.8,12,25.6,24.2,25.6
			c7.1,0,15.9-3.2,22.2-10.8v14.3c-7.5,5.5-15.4,7.1-21.9,7.1c-21.4,0-36.9-15.3-36.9-36c0-21.1,15.6-36.5,36.9-36.5
			c11,0,18.1,4.3,21.4,6.6V107.4z"/>
		<path class="st0" d="M672.1,139.5c-2,3.8-5,8-8.5,11.1c-6.3,5.6-14.1,8.5-22.9,8.5c-16.6,0-34-10.5-34-36
			c0-20.6,12.6-36.5,33.4-36.5c13.4,0,21.9,6.6,26.1,12.6c4.3,6.1,6.8,16.8,6.5,25.9H619c0.2,14.3,10,23.4,21.9,23.4
			c5.6,0,10.1-1.7,14.1-5c3.2-2.7,5.6-6.1,7.1-9.5L672.1,139.5z M660.3,115.1c-2-10.8-10.1-17.9-20.3-17.9s-18.4,7.6-20.3,17.9
			H660.3z"/>
		<path class="st0" d="M783.5,107.4c-6.3-8-15.4-10.3-21.6-10.3c-12.8,0-24.4,9-24.4,25.7c0,16.8,12,25.6,24.2,25.6
			c7.1,0,15.9-3.2,22.2-10.8v14.3c-7.5,5.5-15.4,7.1-21.9,7.1c-21.4,0-36.9-15.3-36.9-36c0-21.1,15.6-36.5,36.9-36.5
			c11,0,18.1,4.3,21.4,6.6V107.4z"/>
		<path class="st0" d="M863.3,139.5c-2,3.8-5,8-8.5,11.1c-6.3,5.6-14.1,8.5-22.9,8.5c-16.6,0-34-10.5-34-36
			c0-20.6,12.6-36.5,33.4-36.5c13.4,0,21.9,6.6,26.1,12.6c4.3,6.1,6.8,16.8,6.5,25.9h-53.6c0.2,14.3,10,23.4,21.9,23.4
			c5.6,0,10.1-1.7,14.1-5c3.2-2.7,5.6-6.1,7.1-9.5L863.3,139.5z M851.5,115.1c-2-10.8-10.1-17.9-20.3-17.9s-18.4,7.6-20.3,17.9
			H851.5z"/>
		<path class="st0" d="M882.1,88.2h12v8c2.2-2.8,8.3-9.6,19.8-9.6c8.1,0,15.6,3.3,19.8,9.5c3.5,5.1,4,10.8,4,18.4v42.7h-12v-42.3
			c0-4.2-0.3-9-3.2-12.6c-2.3-3-6-5-11.3-5c-4.1,0-8.6,1.2-12.1,5.3c-4.6,5.5-5,13.6-5,18.6v36h-12V88.2z"/>
		<path class="st0" d="M972.4,99.1v57.9h-12V99.1h-7.3v-11h7.3V63.3h12v24.9h12v11H972.4z"/>
		<path class="st0" d="M1056.7,139.5c-2,3.8-5,8-8.5,11.1c-6.3,5.6-14.1,8.5-22.9,8.5c-16.6,0-34-10.5-34-36
			c0-20.6,12.6-36.5,33.4-36.5c13.4,0,21.9,6.6,26.1,12.6c4.3,6.1,6.8,16.8,6.5,25.9h-53.6c0.2,14.3,10,23.4,21.9,23.4
			c5.6,0,10.1-1.7,14.1-5c3.2-2.7,5.6-6.1,7.1-9.5L1056.7,139.5z M1044.9,115.1c-2-10.8-10.1-17.9-20.3-17.9
			c-10.1,0-18.4,7.6-20.3,17.9H1044.9z"/>
		<path class="st0" d="M1075.4,88.2h12v7.5c1.2-1.8,6.3-9.1,15.6-9.1c3.7,0,7.6,1.3,10.6,2.8l-5.6,10.8c-2.7-1.8-5.1-2.3-7-2.3
			c-4.8,0-7.8,2-9.6,4.3c-2,2.7-4,7.3-4,18.6v36.4h-12V88.2z"/>
	</g>
	<g>
		<path class="st1" d="M2.6,63.2C2.6,63.3,2.6,63.3,2.6,63.2L2.6,63.2C2.6,63.2,2.6,63.2,2.6,63.2z"/>
		<path class="st1" d="M75.2,37.5c-0.1,0-0.1,0-0.2,0C75.1,37.5,75.2,37.5,75.2,37.5L75.2,37.5z"/>
		<path class="st1" d="M74.9,37.5c-0.1,0-0.1,0-0.2,0C74.8,37.5,74.8,37.5,74.9,37.5L74.9,37.5z"/>
		<path class="st1" d="M43.4,58.3c0,0,0,0.1,0,0.1C43.3,58.4,43.4,58.3,43.4,58.3L43.4,58.3z"/>
		<path class="st1" d="M18.6,98.7c-0.1-0.1-0.1-0.1-0.2-0.2C18.5,98.6,18.5,98.7,18.6,98.7L18.6,98.7z"/>
		<path class="st1" d="M12.8,34.5c0,0-0.1,0.1-0.1,0.1C12.8,34.5,12.8,34.5,12.8,34.5L12.8,34.5z"/>
		<path class="st1" d="M2.6,63.2C2.6,63.3,2.6,63.3,2.6,63.2L2.6,63.2C2.6,63.2,2.6,63.2,2.6,63.2z"/>
		<path class="st1" d="M2.6,63.2L2.6,63.2C2.6,63.3,2.6,63.3,2.6,63.2C2.6,63.2,2.6,63.2,2.6,63.2z"/>
		<path class="st1" d="M86.9,194.9C86.9,194.9,86.9,194.9,86.9,194.9L86.9,194.9C87,194.9,86.9,194.9,86.9,194.9z"/>
		<path class="st1" d="M105.1,11.8c-1.4-1.3-3-2.4-4.8-3.3c-0.8-0.4-1.5-0.8-2.2-1.2c-0.7-0.4-1.5-0.9-2.2-1.3C95,5.6,94,5.2,93,4.9
			c-0.9-0.2-1.7-0.5-2.5-0.8c-1.6-0.7-3.2-1.2-4.8-1.8C84.9,2,84,1.8,83.1,1.6c-0.9-0.2-1.8-0.3-2.6-0.4c-1.9-0.3-3.7-0.7-5.6-0.9
			c-1.8-0.2-3.6-0.3-5.5-0.3c-0.8,0-1.7,0.1-2.5,0.2c-0.8,0.1-1.7,0.1-2.5,0.2c-1.8,0.1-3.5,0.1-5.3,0.2c-0.9,0-1.9,0.2-2.8,0.3
			c-1,0.1-2.1,0.2-3.2,0.4c-1.7,0.2-3.4,0.6-5.1,1.1c-0.9,0.3-1.7,0.6-2.5,0.9c-0.9,0.3-1.7,0.6-2.6,0.9c-0.8,0.3-1.7,0.7-2.5,1
			c-1,0.4-1.9,0.8-2.8,1.2c-1.6,0.7-3.2,1.5-4.7,2.3C32,9,31.2,9.5,30.4,9.9c-0.8,0.5-1.6,0.9-2.4,1.3c-1.7,0.9-3.2,2-4.6,3.3
			c-1.4,1.2-2.7,2.5-4,3.7c-0.7,0.7-1.4,1.4-2.1,2.1c-0.5,0.5-1,0.9-1.5,1.4c-1.3,1.3-2.4,2.8-3.6,4.2c-0.6,0.7-1.3,1.3-1.9,2
			c-0.7,0.7-1.3,1.6-1.8,2.4c-0.9,1.4-1.9,2.9-2.7,4.3c-0.5,0.9-0.8,1.8-1.2,2.7c-0.3,0.8-0.6,1.6-0.9,2.3c-0.6,1.6-1.3,3.1-1.6,4.8
			c-0.4,1.9-0.8,3.8-0.9,5.7c0,0.9-0.1,1.9-0.2,2.8c-0.1,1-0.2,1.9-0.3,2.9c-0.1,0.9-0.2,1.8-0.2,2.6c0,0.1,0,0.1,0,0.2
			c-0.1,1-0.2,1.9-0.3,2.8c-0.1,0.8,0,1.7,0,2.6c0,0.9,0.1,1.7,0.2,2.6c0.2,1.9,0.6,3.8,1,5.7c0.4,1.7,0.8,3.3,1.3,5
			c0.4,1.6,0.8,3.1,1.4,4.6c0.6,1.5,1.1,3.1,1.7,4.6c0.7,1.7,1.5,3.4,2.4,5c0.4,0.7,0.9,1.4,1.4,2.1c0.5,0.7,1,1.4,1.5,2.1
			c1.1,1.5,2.4,2.8,3.6,4.2c0.6,0.7,1.1,1.4,1.7,2c0.6,0.6,1.2,1.3,1.7,1.9c0.5,0.6,1.1,1.3,1.6,1.9c0.6,0.7,1.2,1.3,1.8,1.9
			l0.2,0.2c0,0,0.1,0.1,0.1,0.1c0.9,1,1.8,2.1,2.7,3.1c1.2,1.5,2.5,2.9,3.9,4.3c1.3,1.4,2.7,2.7,4.2,3.9c0.9,0.7,1.8,1.5,2.7,2.2
			c0.9,0.7,1.7,1.5,2.6,2.4c1.6,1.5,3,3.1,4.3,4.8c1,1.3,2,2.6,2.9,4c1,1.4,1.8,2.9,2.6,4.4c1.6,3.1,3.1,6.2,4.5,9.4
			c1.4,3.5,2.6,7.1,3.6,10.7c0.7,2.5,1.4,4.9,2.1,7.4c0,0.2,0.1,0.3,0.1,0.5c0.3,1.5,0.7,3,1.1,4.5c0.3,1.4,0.6,2.8,1,4.2
			c0.2,0.7,0.3,1.4,0.5,2.1c0.1,0.7,0.3,1.4,0.4,2.2c0.2,1.4,0.5,2.8,0.9,4.2c0.3,1.3,0.7,2.7,0.9,4c0.3,1.3,0.5,2.6,0.8,3.9
			c0.2,0.6,0.3,1.2,0.5,1.9c0.3,0.8,0.7,1.5,1.1,2.2c0.8,1.1,1.7,2,2.8,2.7c1.1,0.7,2.4,1.1,3.6,1.4c1.2,0.3,2.4,0.5,3.7,0.6
			c1,0.1,2,0.1,3,0.2c0.5,0.1,1,0.2,1.5,0.2c0.8,0.1,1.6,0.2,2.4,0.2c1.2,0,2.5,0.1,3.7,0.2c1.3,0,2.6-0.1,3.9-0.2s2.6-0.3,3.9-0.7
			c0.8-0.2,1.5-0.5,2.2-0.8c0.3-0.1,0.6-0.3,0.9-0.5c0.4-0.3,0.8-0.6,1.1-1c0.3-0.4,0.6-0.8,0.9-1.2l0,0c0.3-0.4,0.6-0.8,0.8-1.3
			c0.7-1.3,1-2.8,1.1-4.3c0.1-1.4,0-2.8-0.1-4.2c-0.1-1-0.2-2.1-0.4-3.2c-0.3-1.9-0.7-3.9-1.1-5.8c-0.8-3.7-1.7-7.5-2.7-11.2
			c-0.5-1.8-1-3.7-1.4-5.5c-0.5-1.9-0.9-3.7-1.3-5.6c-0.5-1.8-0.9-3.7-1.4-5.5c-0.5-1.8-1-3.6-1.7-5.4c-1.5-3.7-3.3-7.3-5.5-10.6
			c-1.1-1.6-2.4-3.2-3.7-4.7c-1.3-1.4-2.8-2.6-4.2-3.9c-2.8-2.5-5.4-5.3-8-8.1c-2.3-2.6-4.6-5.1-6.8-7.8c-2.1-2.7-4.3-5.3-6.4-8
			c-0.1-0.1-0.1-0.2-0.2-0.3c0,0-0.1-0.1-0.1-0.1c-1.5-2-3-4.2-4.2-6.4c-1.4-2.4-2.7-4.8-3.9-7.3c-1.1-2.6-1.9-5.3-2.7-8
			c-0.4-1.4-0.8-2.8-1.2-4.2c-0.3-1.4-0.6-2.8-0.8-4.1c-0.2-1.9-0.2-3.8-0.1-5.7c0.1-1.8,0.3-3.7,0.6-5.5c0.4-2.8,1.1-5.6,2.1-8.2
			c0.3-0.7,0.6-1.3,0.9-1.9c0.4-0.7,0.8-1.4,1.3-2.1c0.6-0.7,1.1-1.3,1.8-2c0.7-0.7,1.5-1.4,2.3-2c0.6-0.5,1.3-1,2-1.4
			c0.8-0.5,1.7-1,2.6-1.4c1.1-0.4,2.1-0.8,3.2-1c1.3-0.3,2.6-0.6,4-0.7c1.8-0.2,3.5-0.4,5.3-0.6c1-0.1,1.9-0.1,2.9-0.1
			c1,0,2,0,2.9,0.1c0.2,0,0.3,0,0.5,0.1c0,0,0.1,0,0.1,0c1.7,0.3,3.4,0.8,5.1,1.5c1.1,0.5,2.2,1.1,3.2,1.7c1.1,0.6,2.1,1.3,3,2
			c0.1,0.1,0.3,0.2,0.4,0.3c0.2-0.4,0.4-0.8,0.6-1.3c0.1-0.2,0.2-0.4,0.3-0.5c0.2-0.4,0.4-0.8,0.7-1.2c3.4-5.9,8-11.1,12.5-16.3
			c0-0.1,0.3-0.4,0.5-0.6c0.6-0.7,1.1-1.3,1.7-2c0.2-0.2,0.3-0.4,0.5-0.6c0.3-0.4,0.6-0.7,0.9-1.1c0.2-0.2,0.3-0.4,0.5-0.6
			c0.4-0.5,0.8-1,1.2-1.5c0-0.1,0.1-0.1,0.1-0.2c0.6-0.9,1.3-1.8,1.8-2.6C107.1,13.5,106.1,12.7,105.1,11.8z M2.6,63.3L2.6,63.3
			C2.6,63.2,2.6,63.2,2.6,63.3C2.6,63.3,2.6,63.3,2.6,63.3z M86.9,194.9C86.9,194.9,87,194.9,86.9,194.9L86.9,194.9
			C86.9,194.9,86.9,194.9,86.9,194.9z"/>
		<path class="st1" d="M40.1,73.9C40.1,73.9,40.1,73.9,40.1,73.9C40.1,73.9,40.1,73.9,40.1,73.9L40.1,73.9z"/>
		<path class="st1" d="M31.7,106.6C31.7,106.6,31.7,106.6,31.7,106.6c-0.1-0.1-0.1-0.1-0.1-0.2C31.6,106.5,31.6,106.6,31.7,106.6
			L31.7,106.6z"/>
		<path class="st1" d="M2.6,63.2C2.6,63.3,2.6,63.3,2.6,63.2L2.6,63.2C2.6,63.2,2.6,63.2,2.6,63.2z"/>
		<path class="st1" d="M47,10.4C47,10.4,46.9,10.4,47,10.4C46.9,10.4,47,10.4,47,10.4L47,10.4z"/>
		<path class="st1" d="M65.9,28.2C65.9,28.2,65.8,28.2,65.9,28.2C65.8,28.2,65.8,28.2,65.9,28.2C65.8,28.2,65.9,28.2,65.9,28.2
			L65.9,28.2z"/>
		<path class="st0" d="M92.6,224.6L92.6,224.6C92.7,224.6,92.7,224.6,92.6,224.6C92.7,224.6,92.7,224.6,92.6,224.6z M81,226.8
			c-0.2,0-0.4,0-0.5,0C80.6,226.8,80.8,226.8,81,226.8c0.3,0,0.6,0,0.9-0.1C81.6,226.7,81.3,226.8,81,226.8z"/>
		<path class="st0" d="M136.3,200.2c0,0.3-0.1,0.6-0.2,0.9c-0.1,0.3-0.1,0.7-0.2,1c0,0.3-0.1,0.6-0.1,0.9c0,0.2-0.1,0.3-0.1,0.5
			c-0.5,0.6-0.9,1.1-1.4,1.7c-1.1,1.1-2.3,2.1-3.4,3.2c-0.5,0.4-0.9,0.9-1.4,1.3c-0.5,0.5-1.1,1-1.8,1.4c-1.1,0.7-2.3,1.2-3.5,1.9
			c-1.3,0.7-2.7,1.4-4,2.1c-0.6,0.3-1.2,0.7-1.8,1c-0.7,0.3-1.3,0.6-2,0.9c-1.3,0.6-2.6,1.1-4,1.6c-1.2,0.4-2.5,0.9-3.7,1.3
			c-1.2,0.4-2.5,0.8-3.8,1.2c-1.3,0.4-2.7,0.9-4.1,1.3c-1.2,0.3-2.4,0.7-3.6,1.1c-1.5,0.4-3.1,0.7-4.6,1.1c0,0-0.1,0-0.1,0
			c0,0,0,0,0,0c0,0,0,0,0,0c0,0,0,0,0,0h0c-0.2,0-0.3,0.1-0.5,0.1c-2.4,0.6-4.8,1.1-7.3,1.5c-1,0.2-1.9,0.3-2.9,0.4
			c-0.3,0-0.6,0.1-0.9,0.1c-0.2,0-0.4,0-0.5,0c-0.4,0-0.7,0-1.1,0c-0.3,0-0.6,0-0.8,0c-0.3,0-0.6,0-0.8,0c-0.1,0-0.2,0-0.3,0
			c-1.7-0.1-3.3-0.4-4.9-0.7c-0.9-0.2-1.8-0.4-2.8-0.5c-0.7-0.1-1.5-0.2-2.2-0.4c-1.2-0.6-2.5-1.1-3.6-2c-0.9-0.7-1.6-1.6-2.2-2.6
			c-0.4-0.7-0.6-1.4-0.8-2.2c-0.5-1.6-0.7-3.3-1-4.9c-0.1-0.7-0.2-1.4-0.3-2.1c0-0.5,0-1,0-1.6c0-0.3,0-0.6,0.1-0.8
			c0.1-0.4,0.2-0.9,0.5-1.3c0.3-0.3,0.6-0.6,1-0.8c1-0.4,1.9,0,2.8,0.5c0,0,0.1,0.1,0.2,0.1c0.4,0.1,0.7,0.2,1.1,0.4
			c0.6,0.2,1.2,0.5,1.8,0.7c0.5,0.1,0.9,0.2,1.4,0.3c0.6,0.1,1.1,0.3,1.7,0.5c1.5,0.4,3.1,0.7,4.6,0.8c0.8,0.1,1.6,0.1,2.5,0.1
			c0.8,0,1.5,0.1,2.3,0.1c1.5,0,2.9,0,4.4-0.2c1.6-0.1,3.1-0.3,4.7-0.5c1.7-0.2,3.4-0.4,5.1-0.7c1.7-0.2,3.3-0.5,5-0.8
			c3.2-0.7,6.4-1.5,9.6-2.3c0,0,0,0,0,0c0.1,0,0.2-0.1,0.3-0.1l0,0c0.5-0.2,1.1-0.3,1.6-0.5c1.6-0.5,3.2-1.1,4.8-1.6
			c1.5-0.5,3-1.1,4.5-1.7s3-1.2,4.4-1.8c1.4-0.6,2.8-1.2,4.2-2c0.5-0.3,1.1-0.6,1.6-1c0.7-0.4,1.3-0.9,2-1.2c0.3-0.2,0.7-0.3,1-0.4
			c0.3-0.1,0.7-0.1,1-0.1c0.4,0.1,0.7,0.2,1.1,0.5c0.3,0.2,0.5,0.6,0.7,0.9c0.2,0.5,0.5,1.1,0.6,1.6c0.1,0.2,0.1,0.4,0.2,0.7
			C136.3,199.5,136.3,199.8,136.3,200.2z"/>
		<path class="st0" d="M92.7,224.6C92.7,224.6,92.7,224.6,92.7,224.6L92.7,224.6C92.7,224.6,92.7,224.6,92.7,224.6z"/>
		<path class="st0" d="M77.7,226.9c-0.1,0-0.2,0-0.3,0c0,0,0,0,0,0C77.5,226.9,77.6,226.9,77.7,226.9c0.3,0,0.5,0,0.8,0
			C78.3,226.9,78,226.9,77.7,226.9z"/>
		<path class="st0" d="M135.6,221.1c0,0.5,0,0.9-0.1,1.3c-0.1,0.5-0.2,0.9-0.4,1.4c-0.2,0.4-0.5,0.8-0.7,1.2c-0.2,0.3-0.4,0.7-0.7,1
			c-0.2,0.4-0.4,0.7-0.7,1c-0.3,0.4-0.6,0.7-0.9,1c0,0-0.1,0.1-0.1,0.1c-0.3,0.3-0.6,0.7-1,0.9c-0.4,0.3-0.8,0.6-1.1,0.9
			c-0.8,0.6-1.5,1.2-2.3,1.7c-0.7,0.5-1.5,0.9-2.2,1.4c-0.7,0.5-1.5,1-2.2,1.5c-1.5,1-3.2,1.9-4.8,2.8c-0.8,0.4-1.5,0.9-2.3,1.2
			c-0.8,0.4-1.6,0.7-2.4,1.1c-0.8,0.4-1.6,0.8-2.4,1.1c-0.8,0.3-1.6,0.7-2.4,1c-0.4,0.2-0.8,0.3-1.2,0.5c-0.4,0.2-0.8,0.4-1.2,0.5
			c-0.4,0.2-0.8,0.3-1.2,0.5c-0.4,0.2-0.8,0.3-1.3,0.5c-0.8,0.3-1.6,0.5-2.4,0.8c-0.9,0.3-1.8,0.5-2.6,0.8c-0.9,0.3-1.9,0.5-2.8,0.8
			c-0.9,0.2-1.7,0.5-2.6,0.7c-0.9,0.2-1.8,0.4-2.7,0.5c-0.9,0.1-1.7,0.2-2.6,0.3c-0.9,0.1-1.7,0.1-2.6,0.2c-1,0-1.9,0.1-2.9,0
			c-0.9,0-1.8-0.1-2.7-0.2c-0.4-0.1-0.8-0.2-1.3-0.2c-0.4-0.1-0.8-0.2-1.2-0.3c0,0,0,0-0.1,0c0,0-0.1,0-0.2-0.1
			c-1.2-0.3-2.5-0.8-3.7-1.2c-0.7-0.2-1.3-0.6-1.9-1c-0.5-0.4-1-0.8-1.5-1.2c-0.4-0.3-0.7-0.7-1.1-1c-0.3-0.3-0.5-0.7-0.8-1
			c-0.5-0.7-0.9-1.6-1.2-2.4c-0.2-0.4-0.3-0.8-0.5-1.2c-0.2-0.4-0.3-0.8-0.5-1.2c-0.1-0.4-0.2-0.8-0.4-1.2c-0.2-0.5-0.3-0.9-0.4-1.3
			c-0.1-0.3-0.1-0.6,0-0.9c0-0.1,0-0.2,0-0.3c0-0.1,0-0.2,0-0.3c0-0.2,0.1-0.4,0.2-0.5c0.1-0.1,0.1-0.2,0.2-0.2
			c0.1-0.1,0.2-0.1,0.3-0.2c0.1,0,0.3-0.1,0.4-0.1c0.2,0,0.4,0,0.5,0c0.2,0,0.4,0,0.5,0.1c0.9,0.1,1.7,0.3,2.6,0.5
			c0.9,0.1,1.7,0.3,2.6,0.3c0.9,0.1,1.7,0.1,2.6,0.1c1.5,0,2.9-0.1,4.3-0.2c1.4-0.1,2.9-0.2,4.3-0.3c0.9-0.1,1.9-0.2,2.8-0.3
			c0.9-0.1,1.8-0.2,2.7-0.4c0.9-0.2,1.8-0.4,2.7-0.5c0.9-0.1,1.8-0.3,2.7-0.4c0.9-0.1,1.8-0.3,2.7-0.5c0.9-0.2,1.7-0.4,2.6-0.7
			c0.9-0.2,1.7-0.5,2.6-0.6c0.8-0.2,1.7-0.4,2.5-0.6c0.8-0.2,1.6-0.5,2.4-0.7c0.8-0.2,1.6-0.5,2.4-0.7c0.9-0.2,1.7-0.5,2.6-0.8
			c0.8-0.2,1.7-0.5,2.5-0.8c0.8-0.3,1.6-0.6,2.4-0.9c0.8-0.3,1.7-0.6,2.5-0.9c0.4-0.2,0.8-0.4,1.2-0.5c0.3-0.2,0.6-0.4,0.8-0.5
			c0.7-0.5,1.4-0.9,2.1-1.3c0.6-0.4,1.3-0.8,1.9-1.2c0.7-0.5,1.4-0.8,2.2-1.2c0.8-0.3,1.6-0.6,2.4-0.7c0.7-0.2,1.6-0.1,2.3,0.1
			c0.4,0.1,0.9,0.3,1.2,0.6c0.2,0.2,0.4,0.4,0.6,0.7c0.2,0.3,0.3,0.7,0.4,1c0.1,0.2,0.1,0.5,0.2,0.8
			C135.6,220.9,135.6,221,135.6,221.1z"/>
		<path class="st0" d="M67.3,234.1C67.3,234.1,67.3,234.1,67.3,234.1L67.3,234.1C67.3,234.1,67.3,234.1,67.3,234.1z"/>
		<path class="st0" d="M140,242.4c0,0.3-0.1,0.6-0.2,0.9c-0.1,0.3-0.3,0.7-0.5,1c-0.3,0.5-0.6,0.9-1,1.2c-0.3,0.3-0.7,0.7-1,1
			c-0.7,0.7-1.5,1.3-2.2,2c-0.7,0.7-1.4,1.4-2.1,2c-0.8,0.7-1.6,1.3-2.4,2c-0.8,0.6-1.7,1.2-2.5,1.7c-1.7,1-3.3,2.2-4.8,3.4
			c-0.8,0.6-1.6,1.2-2.3,1.9c-0.8,0.6-1.6,1.2-2.5,1.7c-0.9,0.6-1.9,1.1-2.9,1.6c-0.9,0.5-1.8,0.9-2.7,1.4c-1.8,0.9-3.6,1.6-5.5,2.2
			c-1,0.3-1.9,0.6-2.9,0.9c-1,0.3-2.1,0.6-3.1,0.8c-1,0.2-2,0.3-3,0.4c-0.9,0.1-1.9,0.1-2.8,0.1h-0.3c-0.6,0-1.2,0-1.7,0
			c-0.5,0-1.1-0.1-1.6-0.1c-0.5,0-0.9-0.1-1.4-0.1c-0.5-0.1-0.9-0.1-1.4-0.2c-1-0.2-2.1-0.4-3.1-0.7c-0.9-0.3-1.8-0.6-2.7-1
			c-0.5-0.2-0.9-0.4-1.3-0.7c-0.5-0.3-1-0.5-1.4-0.9c-0.5-0.4-0.9-0.8-1.2-1.2c-0.3-0.4-0.6-0.8-0.9-1.2c-0.3-0.4-0.6-0.8-0.8-1.2
			c-0.3-0.4-0.6-0.7-0.9-1.1c-0.6-0.8-1.1-1.8-1.6-2.7c-0.2-0.4-0.5-0.8-0.7-1.3c-0.2-0.4-0.5-0.8-0.4-1.2c0.1-0.2,0.1-0.5,0.3-0.6
			c0.1-0.1,0.2-0.1,0.3-0.2c0.1,0,0.2,0,0.2-0.1c0.2,0,0.4,0,0.6,0c0.9,0.1,1.8,0.2,2.8,0.3c1,0.1,1.9,0.3,2.9,0.4
			c2,0.2,4,0.3,6,0.3c1.2,0,2.3,0,3.5,0c0.8,0,1.5,0,2.3,0c0.3,0,0.6,0,0.9,0c0.2,0,0.5,0,0.7,0c0.1,0,0.2,0,0.3,0
			c0.1,0,0.2,0,0.3,0c0.5,0,1.1-0.1,1.6-0.2c1-0.1,2-0.3,3-0.5c1-0.2,2-0.3,3-0.5c0.9-0.2,1.8-0.4,2.6-0.6c1.2-0.4,2.3-0.7,3.5-1.1
			c1.1-0.4,2.3-0.7,3.4-1c0,0,0,0,0,0c1.9-0.5,3.7-1.3,5.5-2c0.9-0.3,1.8-0.7,2.6-1.1c0.8-0.4,1.6-0.8,2.4-1.3
			c1.2-0.7,2.2-1.7,3.4-2.5c0.8-0.6,1.6-1.1,2.4-1.7c0.8-0.6,1.7-1.2,2.6-1.6c0.4-0.2,0.9-0.4,1.4-0.6c0.5-0.2,0.9-0.3,1.4-0.5
			c0.5-0.2,1-0.3,1.5-0.3c0.5,0,1-0.1,1.4,0c0.3,0.1,0.5,0.1,0.8,0.3c0.2,0.1,0.3,0.2,0.5,0.3c0.5,0.1,0.9,0.2,1.2,0.5
			c0.3,0.3,0.5,0.7,0.6,1.2C140,242,140,242.2,140,242.4z"/>
	</g>
</g>
</svg>
