<?xml version="1.0" encoding="utf-8"?>
<!-- Generator: Adobe Illustrator 19.2.1, SVG Export Plug-In . SVG Version: 6.00 Build 0)  -->
<svg version="1.1" id="Layer_1" xmlns="http://www.w3.org/2000/svg" xmlns:xlink="http://www.w3.org/1999/xlink" x="0px" y="0px"
	 viewBox="0 0 950.1 118.1" style="enable-background:new 0 0 950.1 118.1;" xml:space="preserve">
<style type="text/css">
	.st0{fill:#FFFFFF;}
</style>
<g>
	<path class="st0" d="M527.5,0h-131v96.7c0,11.8,13,21.4,29,21.4h131V21.4C556.5,9.6,543.5,0,527.5,0z M482.5,81.8
		c0,2.8-2.1,4.9-4.9,4.9s-5-2.1-5-4.9v-20c0-6.9-3.2-10.5-8.7-10.5c-5.4,0-9.2,3.7-9.2,10.7v19.9c0,2.8-2.2,4.9-4.9,4.9
		c-2.8,0-5-2.1-5-4.9V61.7c0-6.7-3.3-10.5-8.7-10.5c-5.5,0-9.2,4.1-9.2,10.7v19.9c0,2.8-2.2,4.9-5,4.9c-2.7,0-4.9-2.1-4.9-4.9V47.6
		c0-2.8,2.1-5,4.9-5s5,2.2,5,5v2c2.8-3.8,6.5-7.4,13.2-7.4c6.2,0,10.6,3,12.9,7.6c3.4-4.6,8-7.6,14.5-7.6c9.4,0,15.1,6,15.1,16.5
		L482.5,81.8L482.5,81.8z M537,81.8c0,2.8-2.2,4.9-4.9,4.9c-2.8,0-5-2.1-5-4.9v-2.7c-3.2,4.5-7.7,8.1-14.7,8.1
		c-10.2,0-20-8.1-20-22.4v-0.2c0-14.3,9.7-22.4,20-22.4c7.1,0,11.6,3.5,14.7,7.6V31.1c0-2.8,2.2-4.9,4.9-4.9c2.8,0,5,2.1,5,4.9V81.8
		z M514.7,50.8c-6.8,0-12.4,5.2-12.4,13.8v0.2c0,8.4,5.7,13.8,12.4,13.8c6.6,0,12.5-5.6,12.5-13.8v-0.2
		C527.2,56.3,521.3,50.8,514.7,50.8z"/>
	<path class="st0" d="M0,47.6c0-2.8,2.1-5,4.9-5s5,2.2,5,5v2.7c3.2-4.5,7.7-8.1,14.7-8.1c10.1,0,20,8,20,22.4v0.2
		c0,14.3-9.8,22.4-20,22.4c-7.2,0-11.7-3.6-14.7-7.6v15.3c0,2.8-2.2,4.9-5,4.9c-2.7,0-4.9-2.1-4.9-4.9C0,94.9,0,47.6,0,47.6z
		 M34.6,64.8v-0.2c0-8.3-5.6-13.8-12.3-13.8S9.7,56.4,9.7,64.6v0.2c0,8.3,5.9,13.8,12.6,13.8C29,78.6,34.6,73.3,34.6,64.8z"/>
	<path class="st0" d="M54.9,47.6c0-2.8,2.1-5,4.9-5c2.8,0,5,2.2,5,5V52c2.3-5.4,6.5-9.5,10.9-9.5c3.1,0,4.9,2,4.9,4.9
		c0,2.6-1.7,4.3-3.9,4.7c-7,1.2-11.9,6.6-11.9,16.8v12.8c0,2.7-2.2,4.9-5,4.9c-2.7,0-4.9-2.1-4.9-4.9V47.6z"/>
	<path class="st0" d="M84.5,65v-0.2c0-12.3,9.8-22.6,23.1-22.6c13.2,0,23,10.1,23,22.4v0.2c0,12.3-9.8,22.5-23.1,22.5
		C94.2,87.3,84.5,77.2,84.5,65z M120.6,65v-0.2c0-7.6-5.5-13.9-13.2-13.9c-7.9,0-13,6.2-13,13.7v0.2c0,7.5,5.5,13.8,13.2,13.8
		C115.5,78.6,120.6,72.4,120.6,65z"/>
	<path class="st0" d="M137.7,73.9v-0.2c0-9.3,7.3-13.9,17.8-13.9c4.8,0,8.3,0.7,11.6,1.8v-1.1c0-6.1-3.8-9.4-10.7-9.4
		c-3.8,0-6.9,0.7-9.6,1.7c-0.6,0.2-1.1,0.2-1.6,0.2c-2.3,0-4.2-1.8-4.2-4.1c0-1.8,1.2-3.4,2.7-3.9c4.1-1.6,8.3-2.5,13.9-2.5
		c6.5,0,11.3,1.7,14.3,4.8c3.2,3.1,4.7,7.7,4.7,13.3V82c0,2.7-2.1,4.7-4.8,4.7c-2.9,0-4.8-2-4.8-4.2v-1.6c-2.9,3.5-7.4,6.3-14.1,6.3
		C144.9,87.2,137.7,82.5,137.7,73.9z M167.3,70.8v-2.9c-2.5-1-5.9-1.7-9.8-1.7c-6.4,0-10.1,2.7-10.1,7.2v0.2c0,4.2,3.7,6.5,8.4,6.5
		C162.3,80,167.3,76.3,167.3,70.8z"/>
	<path class="st0" d="M186.2,65v-0.2c0-12.3,9.5-22.6,22.5-22.6c6.8,0,11.4,2.2,15.1,5.4c0.7,0.6,1.6,1.8,1.6,3.4
		c0,2.5-2,4.5-4.6,4.5c-1.2,0-2.3-0.5-2.9-1c-2.5-2.1-5.3-3.7-9.2-3.7c-7.2,0-12.5,6.2-12.5,13.7v0.2c0,7.7,5.3,13.8,12.9,13.8
		c3.9,0,6.9-1.6,9.6-3.8c0.6-0.5,1.6-1.1,2.7-1.1c2.4,0,4.3,2,4.3,4.3c0,1.3-0.5,2.4-1.4,3.1c-3.8,3.7-8.5,6.1-15.7,6.1
		C195.7,87.3,186.2,77.2,186.2,65z"/>
	<path class="st0" d="M237.3,74.4V51.6h-1.6c-2.4,0-4.3-1.9-4.3-4.3c0-2.4,1.9-4.3,4.3-4.3h1.6v-7.4c0-2.7,2.2-4.9,5-4.9
		c2.7,0,4.9,2.2,4.9,4.9V43h7.8c2.4,0,4.3,1.9,4.3,4.3c0,2.4-2,4.3-4.3,4.3h-7.8v21.2c0,3.8,2,5.4,5.3,5.4c1.1,0,2.1-0.2,2.5-0.2
		c2.2,0,4.2,1.8,4.2,4.1c0,1.8-1.2,3.3-2.6,3.8c-2.1,0.7-4.2,1.1-6.8,1.1C242.4,87,237.3,83.9,237.3,74.4z"/>
	<path class="st0" d="M268.7,31.5c0-2.9,2.5-4.8,5.6-4.8s5.6,1.9,5.6,4.8V32c0,2.9-2.5,4.9-5.6,4.9s-5.6-2-5.6-4.9V31.5z
		 M269.4,47.6c0-2.8,2.1-5,4.9-5s5,2.2,5,5v34.2c0,2.8-2.2,4.9-5,4.9c-2.7,0-4.9-2.1-4.9-4.9V47.6z"/>
	<path class="st0" d="M310.2,87.1h-0.5c-2.7,0-4.5-1.7-5.6-4.3l-14.4-32.9c-0.2-0.7-0.6-1.6-0.6-2.5c0-2.5,2.2-4.7,4.9-4.7
		c2.7,0,4.1,1.6,4.9,3.6L310,74.9l11.3-28.8c0.7-1.7,2-3.4,4.7-3.4s4.8,2,4.8,4.7c0,0.9-0.3,1.9-0.6,2.4l-14.4,33
		C314.7,85.3,312.9,87.1,310.2,87.1z"/>
	<path class="st0" d="M357.7,87.3c-12.5,0-22.2-9.1-22.2-22.4v-0.2c0-12.3,8.7-22.5,21.1-22.5c13.7,0,20.5,11.3,20.5,21.3
		c0,2.8-2.1,4.7-4.7,4.7h-27.1c1.1,7,6.1,11,12.4,11c4.2,0,7.4-1.5,10.2-3.8c0.7-0.6,1.4-0.9,2.5-0.9c2.2,0,3.9,1.7,3.9,4
		c0,1.2-0.6,2.3-1.3,3C369.3,85.1,364.4,87.3,357.7,87.3z M367.5,61.7c-0.7-6.4-4.4-11.4-11-11.4c-6.1,0-10.3,4.7-11.2,11.4
		C345.3,61.7,367.5,61.7,367.5,61.7z"/>
</g>
<g>
	<path class="st0" d="M643.6,10.3h6.7v4.2c0.7-1,3.5-5.1,8.7-5.1c2.1,0,4.2,0.7,5.9,1.6l-3.1,6c-1.5-1-2.8-1.3-3.9-1.3
		c-2.7,0-4.3,1.1-5.3,2.4c-1.1,1.5-2.2,4.1-2.2,10.3v20.3h-6.7V10.3z"/>
	<path class="st0" d="M702.7,38.9c-1.1,2.1-2.8,4.5-4.7,6.2c-3.5,3.1-7.8,4.7-12.7,4.7c-9.2,0-18.9-5.8-18.9-20
		c0-11.5,7-20.3,18.6-20.3c7.5,0,12.2,3.7,14.5,7c2.4,3.4,3.8,9.3,3.6,14.4h-29.8c0.1,8,5.6,13,12.2,13c3.1,0,5.6-0.9,7.8-2.8
		c1.8-1.5,3.1-3.4,4-5.3L702.7,38.9z M696.1,25.3c-1.1-6-5.6-10-11.3-10c-5.7,0-10.2,4.2-11.3,10H696.1z"/>
	<path class="st0" d="M728.9,19.2c-0.9-2.2-2.8-3.9-5.3-3.9c-2.4,0-4.6,1.4-4.6,4.3c0,2.8,1.8,3.6,6.2,5.5c5.6,2.3,8.1,4.1,9.6,5.9
		c1.7,2.1,2.1,4.1,2.1,6.2c0,8-5.8,12.6-13.2,12.6c-1.6,0-10.2-0.2-13.4-9.8l5.7-2.4c0.7,2.1,2.9,6.3,7.7,6.3c4.3,0,6.3-3.2,6.3-6.1
		c0-3.6-2.6-4.8-6.2-6.4c-4.6-2.1-7.6-3.5-9.3-5.6c-1.5-1.8-1.8-3.7-1.8-5.6c0-6.7,4.7-10.7,11.2-10.7c2.1,0,7.5,0.4,10.5,6.9
		L728.9,19.2z"/>
	<path class="st0" d="M743.3,29.6c0-11.6,8.6-20.3,20.3-20.3c11.7,0,20.3,8.6,20.3,20.3s-8.7,20.1-20.3,20.1S743.3,41.3,743.3,29.6z
		 M750.1,29.6c0,9.4,6.7,14.2,13.5,14.2c6.9,0,13.5-4.9,13.5-14.2c0-9.4-6.5-14.3-13.5-14.3C756.6,15.3,750.1,20.3,750.1,29.6z"/>
	<path class="st0" d="M800.7,32.7c0,2.7,0,5.8,1.8,8.2c1,1.3,3.1,2.9,6.7,2.9s5.7-1.7,6.7-2.9c1.8-2.4,1.8-5.6,1.8-8.2V10.3h6.7
		v23.1c0,4.7-0.4,8.2-3.5,11.6c-3.4,3.6-8,4.8-11.7,4.8s-8.3-1.2-11.7-4.8c-3.1-3.3-3.5-6.8-3.5-11.6V10.3h6.7V32.7z"/>
	<path class="st0" d="M837.1,10.3h6.7v4.2c0.7-1,3.5-5.1,8.7-5.1c2.1,0,4.2,0.7,5.9,1.6l-3.1,6c-1.5-1-2.8-1.3-3.9-1.3
		c-2.7,0-4.3,1.1-5.3,2.4c-1.1,1.5-2.2,4.1-2.2,10.3v20.3h-6.7V10.3z"/>
	<path class="st0" d="M892.2,21c-3.5-4.5-8.6-5.7-12-5.7c-7.1,0-13.6,5-13.6,14.3c0,9.3,6.7,14.2,13.5,14.2c4,0,8.8-1.8,12.4-6v8
		c-4.2,3.1-8.6,4-12.2,4c-11.9,0-20.5-8.5-20.5-20c0-11.7,8.7-20.3,20.5-20.3c6.1,0,10.1,2.4,11.9,3.7L892.2,21L892.2,21z"/>
	<path class="st0" d="M936.7,38.9c-1.1,2.1-2.8,4.5-4.7,6.2c-3.5,3.1-7.8,4.7-12.7,4.7c-9.2,0-18.9-5.8-18.9-20
		c0-11.5,7-20.3,18.6-20.3c7.5,0,12.2,3.7,14.5,7c2.4,3.4,3.8,9.3,3.6,14.4h-29.9c0.1,8,5.6,13,12.2,13c3.1,0,5.6-0.9,7.8-2.8
		c1.8-1.5,3.1-3.4,4-5.3L936.7,38.9z M930.1,25.3c-1.1-6-5.6-10-11.3-10s-10.2,4.2-11.3,10H930.1z"/>
</g>
<g>
	<path class="st0" d="M677.6,83.3c-3.5-4.5-8.6-5.7-12-5.7c-7.1,0-13.6,5-13.6,14.3c0,9.3,6.7,14.2,13.5,14.2c4,0,8.8-1.8,12.4-6v8
		c-4.2,3.1-8.6,4-12.2,4c-11.9,0-20.5-8.5-20.5-20c0-11.7,8.7-20.3,20.5-20.3c6.1,0,10.1,2.4,11.9,3.7L677.6,83.3L677.6,83.3z"/>
	<path class="st0" d="M722,101.2c-1.1,2.1-2.8,4.5-4.7,6.2c-3.5,3.1-7.8,4.7-12.7,4.7c-9.2,0-18.9-5.8-18.9-20
		c0-11.5,7-20.3,18.6-20.3c7.5,0,12.2,3.7,14.5,7c2.4,3.4,3.8,9.3,3.6,14.4h-29.8c0.1,8,5.6,13,12.2,13c3.1,0,5.6-0.9,7.8-2.8
		c1.8-1.5,3.1-3.4,4-5.3L722,101.2z M715.4,87.6c-1.1-6-5.6-10-11.3-10s-10.2,4.2-11.3,10H715.4z"/>
	<path class="st0" d="M732.4,72.7h6.7v4.5c1.2-1.6,4.6-5.3,11-5.3c4.5,0,8.7,1.8,11,5.3c1.9,2.8,2.2,6,2.2,10.2V111h-6.7V87.5
		c0-2.3-0.2-5-1.8-7c-1.3-1.7-3.3-2.8-6.3-2.8c-2.3,0-4.8,0.7-6.7,2.9c-2.6,3.1-2.8,7.6-2.8,10.3v20h-6.7V72.7z"/>
	<path class="st0" d="M782.7,78.7v32.2H776V78.7h-4.1v-6.1h4.1V58.8h6.7v13.9h6.7v6.1L782.7,78.7L782.7,78.7z"/>
	<path class="st0" d="M829.6,101.2c-1.1,2.1-2.8,4.5-4.7,6.2c-3.5,3.1-7.8,4.7-12.7,4.7c-9.2,0-18.9-5.8-18.9-20
		c0-11.5,7-20.3,18.6-20.3c7.5,0,12.2,3.7,14.5,7c2.4,3.4,3.8,9.3,3.6,14.4h-29.8c0.1,8,5.6,13,12.2,13c3.1,0,5.6-0.9,7.8-2.8
		c1.8-1.5,3.1-3.4,4-5.3L829.6,101.2z M823,87.6c-1.1-6-5.6-10-11.3-10c-5.6,0-10.2,4.2-11.3,10H823z"/>
	<path class="st0" d="M840,72.7h6.7v4.2c0.7-1,3.5-5.1,8.7-5.1c2.1,0,4.2,0.7,5.9,1.6l-3.1,6c-1.5-1-2.8-1.3-3.9-1.3
		c-2.7,0-4.3,1.1-5.3,2.4c-1.1,1.5-2.2,4.1-2.2,10.3V111H840V72.7z"/>
</g>
<g>
	<rect x="598" class="st0" width="4" height="118.1"/>
</g>
</svg>
