<?xml version="1.0" encoding="utf-8"?>
<!-- Generator: Adobe Illustrator 19.2.1, SVG Export Plug-In . SVG Version: 6.00 Build 0)  -->
<svg version="1.1" id="Layer_1" xmlns="http://www.w3.org/2000/svg" xmlns:xlink="http://www.w3.org/1999/xlink" x="0px" y="0px"
	 viewBox="0 0 574 161" style="enable-background:new 0 0 574 161;" xml:space="preserve">
<style type="text/css">
	.st0{fill:#51B4DF;}
	.st1{fill:#26547D;}
</style>
<g>
	<path class="st0" d="M535.3,6.1h-131v96.7c0,11.8,13,21.4,29,21.4h131V27.5C564.3,15.7,551.3,6.1,535.3,6.1z M490.3,87.9
		c0,2.8-2.1,4.9-4.9,4.9s-5-2.1-5-4.9v-20c0-6.9-3.2-10.5-8.7-10.5c-5.4,0-9.2,3.7-9.2,10.7V88c0,2.8-2.2,4.9-4.9,4.9
		c-2.8,0-5-2.1-5-4.9V67.8c0-6.7-3.3-10.5-8.7-10.5c-5.5,0-9.2,4.1-9.2,10.7v19.9c0,2.8-2.2,4.9-5,4.9c-2.7,0-4.9-2.1-4.9-4.9V53.7
		c0-2.8,2.1-5,4.9-5s5,2.2,5,5v2c2.8-3.8,6.5-7.4,13.2-7.4c6.2,0,10.6,3,12.9,7.6c3.4-4.6,8-7.6,14.5-7.6c9.4,0,15.1,6,15.1,16.5
		L490.3,87.9L490.3,87.9z M544.8,87.9c0,2.8-2.2,4.9-4.9,4.9c-2.8,0-5-2.1-5-4.9v-2.7c-3.2,4.5-7.7,8.1-14.7,8.1
		c-10.2,0-20-8.1-20-22.4v-0.2c0-14.3,9.7-22.4,20-22.4c7.1,0,11.6,3.5,14.7,7.6V37.2c0-2.8,2.2-4.9,4.9-4.9c2.8,0,5,2.1,5,4.9V87.9
		z M522.5,56.9c-6.8,0-12.4,5.2-12.4,13.8v0.2c0,8.4,5.7,13.8,12.4,13.8c6.6,0,12.5-5.6,12.5-13.8v-0.2
		C535,62.4,529.1,56.9,522.5,56.9z"/>
	<path class="st1" d="M7.8,53.7c0-2.8,2.1-5,4.9-5s5,2.2,5,5v2.7c3.2-4.5,7.7-8.1,14.7-8.1c10.1,0,20,8,20,22.4v0.2
		c0,14.3-9.8,22.4-20,22.4c-7.2,0-11.7-3.6-14.7-7.6V101c0,2.8-2.2,4.9-5,4.9c-2.7,0-4.9-2.1-4.9-4.9C7.8,101,7.8,53.7,7.8,53.7z
		 M42.4,70.9v-0.2c0-8.3-5.6-13.8-12.3-13.8s-12.6,5.6-12.6,13.8v0.2c0,8.3,5.9,13.8,12.6,13.8S42.4,79.4,42.4,70.9z"/>
	<path class="st1" d="M62.7,53.7c0-2.8,2.1-5,4.9-5s5,2.2,5,5v4.4c2.3-5.4,6.5-9.5,10.9-9.5c3.1,0,4.9,2,4.9,4.9
		c0,2.6-1.7,4.3-3.9,4.7c-7,1.2-11.9,6.6-11.9,16.8v12.8c0,2.7-2.2,4.9-5,4.9c-2.7,0-4.9-2.1-4.9-4.9V53.7z"/>
	<path class="st1" d="M92.3,71.1v-0.2c0-12.3,9.8-22.6,23.1-22.6c13.2,0,23,10.1,23,22.4v0.2c0,12.3-9.8,22.5-23.1,22.5
		S92.3,83.3,92.3,71.1z M128.4,71.1v-0.2c0-7.6-5.5-13.9-13.2-13.9c-7.9,0-13,6.2-13,13.7v0.2c0,7.5,5.5,13.8,13.2,13.8
		C123.3,84.7,128.4,78.5,128.4,71.1z"/>
	<path class="st1" d="M145.5,80v-0.2c0-9.3,7.3-13.9,17.8-13.9c4.8,0,8.3,0.7,11.6,1.8v-1.1c0-6.1-3.8-9.4-10.7-9.4
		c-3.8,0-6.9,0.7-9.6,1.7c-0.6,0.2-1.1,0.2-1.6,0.2c-2.3,0-4.2-1.8-4.2-4.1c0-1.8,1.2-3.4,2.7-3.9c4.1-1.6,8.3-2.5,13.9-2.5
		c6.5,0,11.3,1.7,14.3,4.8c3.2,3.1,4.7,7.7,4.7,13.3v21.4c0,2.7-2.1,4.7-4.8,4.7c-2.9,0-4.8-2-4.8-4.2V87c-2.9,3.5-7.4,6.3-14.1,6.3
		C152.7,93.3,145.5,88.6,145.5,80z M175.1,76.9V74c-2.5-1-5.9-1.7-9.8-1.7c-6.4,0-10.1,2.7-10.1,7.2v0.2c0,4.2,3.7,6.5,8.4,6.5
		C170.1,86.1,175.1,82.4,175.1,76.9z"/>
	<path class="st1" d="M194,71.1v-0.2c0-12.3,9.5-22.6,22.5-22.6c6.8,0,11.4,2.2,15.1,5.4c0.7,0.6,1.6,1.8,1.6,3.4
		c0,2.5-2,4.5-4.6,4.5c-1.2,0-2.3-0.5-2.9-1c-2.5-2.1-5.3-3.7-9.2-3.7c-7.2,0-12.5,6.2-12.5,13.7v0.2c0,7.7,5.3,13.8,12.9,13.8
		c3.9,0,6.9-1.6,9.6-3.8c0.6-0.5,1.6-1.1,2.7-1.1c2.4,0,4.3,2,4.3,4.3c0,1.3-0.5,2.4-1.4,3.1c-3.8,3.7-8.5,6.1-15.7,6.1
		C203.5,93.4,194,83.3,194,71.1z"/>
	<path class="st1" d="M245.1,80.5V57.7h-1.6c-2.4,0-4.3-1.9-4.3-4.3c0-2.4,1.9-4.3,4.3-4.3h1.6v-7.4c0-2.7,2.2-4.9,5-4.9
		c2.7,0,4.9,2.2,4.9,4.9v7.4h7.8c2.4,0,4.3,1.9,4.3,4.3s-2,4.3-4.3,4.3H255v21.2c0,3.8,2,5.4,5.3,5.4c1.1,0,2.1-0.2,2.5-0.2
		c2.2,0,4.2,1.8,4.2,4.1c0,1.8-1.2,3.3-2.6,3.8c-2.1,0.7-4.2,1.1-6.8,1.1C250.2,93.1,245.1,90,245.1,80.5z"/>
	<path class="st1" d="M276.5,37.6c0-2.9,2.5-4.8,5.6-4.8s5.6,1.9,5.6,4.8v0.5c0,2.9-2.5,4.9-5.6,4.9s-5.6-2-5.6-4.9V37.6z
		 M277.2,53.7c0-2.8,2.1-5,4.9-5s5,2.2,5,5v34.2c0,2.8-2.2,4.9-5,4.9c-2.7,0-4.9-2.1-4.9-4.9V53.7z"/>
	<path class="st1" d="M318,93.2h-0.5c-2.7,0-4.5-1.7-5.6-4.3L297.5,56c-0.2-0.7-0.6-1.6-0.6-2.5c0-2.5,2.2-4.7,4.9-4.7
		c2.7,0,4.1,1.6,4.9,3.6L317.8,81l11.3-28.8c0.7-1.7,2-3.4,4.7-3.4s4.8,2,4.8,4.7c0,0.9-0.3,1.9-0.6,2.4l-14.4,33
		C322.5,91.4,320.7,93.2,318,93.2z"/>
	<path class="st1" d="M365.5,93.4c-12.5,0-22.2-9.1-22.2-22.4v-0.2c0-12.3,8.7-22.5,21.1-22.5c13.7,0,20.5,11.3,20.5,21.3
		c0,2.8-2.1,4.7-4.7,4.7h-27.1c1.1,7,6.1,11,12.4,11c4.2,0,7.4-1.5,10.2-3.8c0.7-0.6,1.4-0.9,2.5-0.9c2.2,0,3.9,1.7,3.9,4
		c0,1.2-0.6,2.3-1.3,3C377.1,91.2,372.2,93.4,365.5,93.4z M375.3,67.8c-0.7-6.4-4.4-11.4-11-11.4c-6.1,0-10.3,4.7-11.2,11.4
		C353.1,67.8,375.3,67.8,375.3,67.8z"/>
</g>
<g>
	<path class="st0" d="M7.8,130.9h4.7v2.9c0.5-0.7,2.5-3.6,6.1-3.6c1.5,0,2.9,0.5,4.1,1.1l-2.2,4.2c-1.1-0.7-2-0.9-2.7-0.9
		c-1.9,0-3,0.8-3.7,1.7c-0.8,1.1-1.5,2.9-1.5,7.2v14.2H7.9L7.8,130.9L7.8,130.9z"/>
	<path class="st0" d="M49.2,151c-0.8,1.5-2,3.2-3.3,4.3c-2.5,2.2-5.5,3.3-8.9,3.3c-6.5,0-13.3-4.1-13.3-14c0-8.1,4.9-14.2,13-14.2
		c5.3,0,8.6,2.6,10.2,4.9c1.7,2.4,2.7,6.5,2.5,10.1H28.6c0.1,5.6,3.9,9.1,8.6,9.1c2.2,0,3.9-0.6,5.5-2c1.3-1.1,2.2-2.4,2.8-3.7
		L49.2,151z M44.6,141.5c-0.8-4.2-3.9-7-7.9-7s-7.2,2.9-7.9,7H44.6z"/>
	<path class="st0" d="M67.6,137.2c-0.6-1.5-2-2.7-3.7-2.7s-3.2,1-3.2,3s1.3,2.5,4.3,3.9c3.9,1.6,5.7,2.9,6.7,4.1
		c1.2,1.5,1.5,2.9,1.5,4.3c0,5.6-4.1,8.8-9.3,8.8c-1.1,0-7.2-0.1-9.4-6.9l4-1.7c0.5,1.5,2,4.4,5.4,4.4c3,0,4.4-2.2,4.4-4.3
		c0-2.5-1.8-3.4-4.3-4.5c-3.2-1.5-5.3-2.5-6.5-3.9c-1.1-1.3-1.3-2.6-1.3-3.9c0-4.7,3.3-7.5,7.9-7.5c1.5,0,5.3,0.3,7.4,4.8
		L67.6,137.2z"/>
	<path class="st0" d="M77.7,144.5c0-8.1,6-14.2,14.2-14.2s14.2,6,14.2,14.2s-6.1,14.1-14.2,14.1S77.7,152.7,77.7,144.5z M82.5,144.5
		c0,6.6,4.7,10,9.5,10s9.5-3.4,9.5-10s-4.6-10-9.5-10S82.5,138,82.5,144.5z"/>
	<path class="st0" d="M118,146.7c0,1.9,0,4.1,1.3,5.8c0.7,0.9,2.2,2,4.7,2s4-1.2,4.7-2c1.3-1.7,1.3-3.9,1.3-5.8V131h4.7v16.2
		c0,3.3-0.3,5.8-2.5,8.1c-2.4,2.5-5.6,3.4-8.2,3.4c-2.6,0-5.8-0.8-8.2-3.4c-2.2-2.3-2.5-4.8-2.5-8.1V131h4.7V146.7z"/>
	<path class="st0" d="M143.5,130.9h4.7v2.9c0.5-0.7,2.5-3.6,6.1-3.6c1.5,0,2.9,0.5,4.1,1.1l-2.2,4.2c-1.1-0.7-2-0.9-2.7-0.9
		c-1.9,0-3,0.8-3.7,1.7c-0.8,1.1-1.5,2.9-1.5,7.2v14.2h-4.7L143.5,130.9L143.5,130.9z"/>
	<path class="st0" d="M182.1,138.4c-2.5-3.2-6-4-8.4-4c-5,0-9.5,3.5-9.5,10s4.7,10,9.5,10c2.8,0,6.2-1.3,8.7-4.2v5.6
		c-2.9,2.2-6,2.8-8.6,2.8c-8.3,0-14.4-6-14.4-14c0-8.2,6.1-14.2,14.4-14.2c4.3,0,7.1,1.7,8.3,2.6V138.4L182.1,138.4z"/>
	<path class="st0" d="M213.3,151c-0.8,1.5-2,3.2-3.3,4.3c-2.5,2.2-5.5,3.3-8.9,3.3c-6.5,0-13.3-4.1-13.3-14c0-8.1,4.9-14.2,13-14.2
		c5.3,0,8.6,2.6,10.2,4.9c1.7,2.4,2.7,6.5,2.5,10.1h-21c0.1,5.6,3.9,9.1,8.6,9.1c2.2,0,3.9-0.6,5.5-2c1.3-1.1,2.2-2.4,2.8-3.7
		L213.3,151z M208.7,141.5c-0.8-4.2-3.9-7-7.9-7s-7.2,2.9-7.9,7H208.7z"/>
</g>
<g>
	<path class="st0" d="M249.5,138.3c-2.5-3.2-6-4-8.4-4c-5,0-9.5,3.5-9.5,10s4.7,10,9.5,10c2.8,0,6.2-1.3,8.7-4.2v5.6
		c-2.9,2.2-6,2.8-8.6,2.8c-8.3,0-14.4-6-14.4-14c0-8.2,6.1-14.2,14.4-14.2c4.3,0,7.1,1.7,8.3,2.6V138.3L249.5,138.3z"/>
	<path class="st0" d="M280.7,150.8c-0.8,1.5-2,3.2-3.3,4.3c-2.5,2.2-5.5,3.3-8.9,3.3c-6.5,0-13.3-4.1-13.3-14
		c0-8.1,4.9-14.2,13-14.2c5.3,0,8.6,2.6,10.2,4.9c1.7,2.4,2.7,6.5,2.5,10.1H260c0.1,5.6,3.9,9.1,8.6,9.1c2.2,0,3.9-0.6,5.5-2
		c1.3-1.1,2.2-2.4,2.8-3.7L280.7,150.8z M276,141.3c-0.8-4.2-3.9-7-7.9-7s-7.2,2.9-7.9,7H276z"/>
	<path class="st0" d="M287.9,130.8h4.7v3.2c0.8-1.1,3.2-3.7,7.7-3.7c3.2,0,6.1,1.3,7.7,3.7c1.3,2,1.5,4.2,1.5,7.2v16.6h-4.7v-16.5
		c0-1.6-0.1-3.5-1.3-4.9c-0.9-1.2-2.3-2-4.4-2c-1.6,0-3.4,0.5-4.7,2c-1.8,2.2-2,5.3-2,7.2v14h-4.7L287.9,130.8L287.9,130.8z"/>
	<path class="st0" d="M323.2,135v22.6h-4.7V135h-2.9v-4.3h2.9V121h4.7v9.7h4.7v4.3H323.2L323.2,135z"/>
	<path class="st0" d="M356.1,150.8c-0.8,1.5-2,3.2-3.3,4.3c-2.5,2.2-5.5,3.3-8.9,3.3c-6.5,0-13.3-4.1-13.3-14
		c0-8.1,4.9-14.2,13-14.2c5.3,0,8.6,2.6,10.2,4.9c1.7,2.4,2.7,6.5,2.5,10.1h-20.9c0.1,5.6,3.9,9.1,8.6,9.1c2.2,0,3.9-0.6,5.5-2
		c1.3-1.1,2.2-2.4,2.8-3.7L356.1,150.8z M351.5,141.3c-0.8-4.2-3.9-7-7.9-7c-3.9,0-7.2,2.9-7.9,7H351.5z"/>
	<path class="st0" d="M363.4,130.8h4.7v2.9c0.5-0.7,2.5-3.6,6.1-3.6c1.5,0,2.9,0.5,4.1,1.1l-2.2,4.2c-1.1-0.7-2-0.9-2.7-0.9
		c-1.9,0-3,0.8-3.7,1.7c-0.8,1.1-1.5,2.9-1.5,7.2v14.2h-4.8V130.8z"/>
</g>
</svg>
