<?xml version="1.0" encoding="utf-8"?>
<!-- Generator: Adobe Illustrator 19.2.1, SVG Export Plug-In . SVG Version: 6.00 Build 0)  -->
<svg version="1.1" id="Layer_1" xmlns="http://www.w3.org/2000/svg" xmlns:xlink="http://www.w3.org/1999/xlink" x="0px" y="0px"
	 viewBox="0 0 556.5 118.1" style="enable-background:new 0 0 556.5 118.1;" xml:space="preserve">
<style type="text/css">
	.st0{fill:#FFFFFF;}
	.st1{fill:#FFFFFF;}
</style>
<g>
	<path class="st0" d="M527.5,0h-131v96.7c0,11.8,13,21.4,29,21.4h131V21.4C556.5,9.6,543.5,0,527.5,0z M482.5,81.8
		c0,2.8-2.1,4.9-4.9,4.9c-2.8,0-5-2.1-5-4.9v-20c0-6.9-3.2-10.5-8.7-10.5c-5.4,0-9.2,3.7-9.2,10.7v19.9c0,2.8-2.2,4.9-4.9,4.9
		c-2.8,0-5-2.1-5-4.9V61.7c0-6.7-3.3-10.5-8.7-10.5c-5.5,0-9.2,4.1-9.2,10.7v19.9c0,2.8-2.2,4.9-5,4.9c-2.7,0-4.9-2.1-4.9-4.9V47.6
		c0-2.8,2.1-5,4.9-5s5,2.2,5,5v2c2.8-3.8,6.5-7.4,13.2-7.4c6.2,0,10.6,3,12.9,7.6c3.4-4.6,8-7.6,14.5-7.6c9.4,0,15.1,6,15.1,16.5
		V81.8z M537,81.8c0,2.8-2.2,4.9-4.9,4.9c-2.8,0-5-2.1-5-4.9v-2.7c-3.2,4.5-7.7,8.1-14.7,8.1c-10.2,0-20-8.1-20-22.4v-0.2
		c0-14.3,9.7-22.4,20-22.4c7.1,0,11.6,3.5,14.7,7.6V31.1c0-2.8,2.2-4.9,4.9-4.9c2.8,0,5,2.1,5,4.9V81.8z M514.7,50.8
		c-6.8,0-12.4,5.2-12.4,13.8v0.2c0,8.4,5.7,13.8,12.4,13.8c6.6,0,12.5-5.6,12.5-13.8v-0.2C527.2,56.3,521.3,50.8,514.7,50.8z"/>
	<path class="st1" d="M0,47.6c0-2.8,2.1-5,4.9-5c2.8,0,5,2.2,5,5v2.7c3.2-4.5,7.7-8.1,14.7-8.1c10.1,0,20,8,20,22.4v0.2
		c0,14.3-9.8,22.4-20,22.4c-7.2,0-11.7-3.6-14.7-7.6v15.3c0,2.8-2.2,4.9-5,4.9c-2.7,0-4.9-2.1-4.9-4.9V47.6z M34.6,64.8v-0.2
		c0-8.3-5.6-13.8-12.3-13.8c-6.7,0-12.6,5.6-12.6,13.8v0.2c0,8.3,5.9,13.8,12.6,13.8C29,78.6,34.6,73.3,34.6,64.8z"/>
	<path class="st1" d="M54.9,47.6c0-2.8,2.1-5,4.9-5c2.8,0,5,2.2,5,5v4.4c2.3-5.4,6.5-9.5,10.9-9.5c3.1,0,4.9,2,4.9,4.9
		c0,2.6-1.7,4.3-3.9,4.7c-7,1.2-11.9,6.6-11.9,16.8v12.8c0,2.7-2.2,4.9-5,4.9c-2.7,0-4.9-2.1-4.9-4.9V47.6z"/>
	<path class="st1" d="M84.5,65v-0.2c0-12.3,9.8-22.6,23.1-22.6c13.2,0,23,10.1,23,22.4v0.2c0,12.3-9.8,22.5-23.1,22.5
		C94.2,87.3,84.5,77.2,84.5,65z M120.6,65v-0.2c0-7.6-5.5-13.9-13.2-13.9c-7.9,0-13,6.2-13,13.7v0.2c0,7.5,5.5,13.8,13.2,13.8
		C115.5,78.6,120.6,72.4,120.6,65z"/>
	<path class="st1" d="M137.7,73.9v-0.2c0-9.3,7.3-13.9,17.8-13.9c4.8,0,8.3,0.7,11.6,1.8v-1.1c0-6.1-3.8-9.4-10.7-9.4
		c-3.8,0-6.9,0.7-9.6,1.7c-0.6,0.2-1.1,0.2-1.6,0.2c-2.3,0-4.2-1.8-4.2-4.1c0-1.8,1.2-3.4,2.7-3.9c4.1-1.6,8.3-2.5,13.9-2.5
		c6.5,0,11.3,1.7,14.3,4.8c3.2,3.1,4.7,7.7,4.7,13.3V82c0,2.7-2.1,4.7-4.8,4.7c-2.9,0-4.8-2-4.8-4.2v-1.6c-2.9,3.5-7.4,6.3-14.1,6.3
		C144.9,87.2,137.7,82.5,137.7,73.9z M167.3,70.8v-2.9c-2.5-1-5.9-1.7-9.8-1.7c-6.4,0-10.1,2.7-10.1,7.2v0.2c0,4.2,3.7,6.5,8.4,6.5
		C162.3,80,167.3,76.3,167.3,70.8z"/>
	<path class="st1" d="M186.2,65v-0.2c0-12.3,9.5-22.6,22.5-22.6c6.8,0,11.4,2.2,15.1,5.4c0.7,0.6,1.6,1.8,1.6,3.4
		c0,2.5-2,4.5-4.6,4.5c-1.2,0-2.3-0.5-2.9-1c-2.5-2.1-5.3-3.7-9.2-3.7c-7.2,0-12.5,6.2-12.5,13.7v0.2c0,7.7,5.3,13.8,12.9,13.8
		c3.9,0,6.9-1.6,9.6-3.8c0.6-0.5,1.6-1.1,2.7-1.1c2.4,0,4.3,2,4.3,4.3c0,1.3-0.5,2.4-1.4,3.1c-3.8,3.7-8.5,6.1-15.7,6.1
		C195.7,87.3,186.2,77.2,186.2,65z"/>
	<path class="st1" d="M237.3,74.4V51.6h-1.6c-2.4,0-4.3-1.9-4.3-4.3c0-2.4,1.9-4.3,4.3-4.3h1.6v-7.4c0-2.7,2.2-4.9,5-4.9
		c2.7,0,4.9,2.2,4.9,4.9v7.4h7.8c2.4,0,4.3,1.9,4.3,4.3c0,2.4-2,4.3-4.3,4.3h-7.8v21.2c0,3.8,2,5.4,5.3,5.4c1.1,0,2.1-0.2,2.5-0.2
		c2.2,0,4.2,1.8,4.2,4.1c0,1.8-1.2,3.3-2.6,3.8c-2.1,0.7-4.2,1.1-6.8,1.1C242.4,87,237.3,83.9,237.3,74.4z"/>
	<path class="st1" d="M268.7,31.5c0-2.9,2.5-4.8,5.6-4.8s5.6,1.9,5.6,4.8V32c0,2.9-2.5,4.9-5.6,4.9s-5.6-2-5.6-4.9V31.5z
		 M269.4,47.6c0-2.8,2.1-5,4.9-5c2.8,0,5,2.2,5,5v34.2c0,2.8-2.2,4.9-5,4.9c-2.7,0-4.9-2.1-4.9-4.9V47.6z"/>
	<path class="st1" d="M310.2,87.1h-0.5c-2.7,0-4.5-1.7-5.6-4.3l-14.4-32.9c-0.2-0.7-0.6-1.6-0.6-2.5c0-2.5,2.2-4.7,4.9-4.7
		c2.7,0,4.1,1.6,4.9,3.6l11.1,28.6l11.3-28.8c0.7-1.7,2-3.4,4.7-3.4c2.7,0,4.8,2,4.8,4.7c0,0.9-0.3,1.9-0.6,2.4l-14.4,33
		C314.7,85.3,312.9,87.1,310.2,87.1z"/>
	<path class="st1" d="M357.7,87.3c-12.5,0-22.2-9.1-22.2-22.4v-0.2c0-12.3,8.7-22.5,21.1-22.5c13.7,0,20.5,11.3,20.5,21.3
		c0,2.8-2.1,4.7-4.7,4.7h-27.1c1.1,7,6.1,11,12.4,11c4.2,0,7.4-1.5,10.2-3.8c0.7-0.6,1.4-0.9,2.5-0.9c2.2,0,3.9,1.7,3.9,4
		c0,1.2-0.6,2.3-1.3,3C369.3,85.1,364.4,87.3,357.7,87.3z M367.5,61.7c-0.7-6.4-4.4-11.4-11-11.4c-6.1,0-10.3,4.7-11.2,11.4H367.5z"
		/>
</g>
</svg>
