<?xml version="1.0" encoding="utf-8"?>
<!-- Generator: Adobe Illustrator 19.2.1, SVG Export Plug-In . SVG Version: 6.00 Build 0)  -->
<svg version="1.1" id="Layer_1" xmlns="http://www.w3.org/2000/svg" xmlns:xlink="http://www.w3.org/1999/xlink" x="0px" y="0px"
	 viewBox="0 0 1136 286" style="enable-background:new 0 0 1136 286;" xml:space="preserve">
<style type="text/css">
	.st0{fill:#3D75B4;}
	.st1{fill:#0895CD;}
	.st2{opacity:0.95;fill:#E9D93E;}
</style>
<g>
	<g>
		<path class="st0" d="M138.8,226.4c0,0.2-0.1,0.5-0.2,0.7c-0.1,0.3-0.1,0.5-0.2,0.8c0,0.2-0.1,0.5-0.1,0.7c0,0.1-0.1,0.3-0.1,0.4
			c-0.4,0.4-0.8,0.9-1.2,1.2c-0.9,0.8-1.8,1.6-2.8,2.4c-0.4,0.3-0.8,0.7-1.2,1c-0.4,0.4-0.9,0.7-1.4,1c-0.9,0.5-1.9,0.9-2.8,1.4
			c-1,0.5-2.1,1-3.2,1.5c-0.5,0.2-0.9,0.5-1.4,0.7c-0.5,0.2-1,0.5-1.6,0.7c-1,0.4-2.1,0.8-3.1,1.1c-1,0.3-1.9,0.6-2.9,0.9
			c-1,0.3-2,0.5-3,0.8c-1.1,0.3-2.1,0.6-3.2,0.9c-0.9,0.2-1.9,0.5-2.8,0.7c-1.2,0.3-2.4,0.5-3.6,0.7c0,0-0.1,0-0.1,0c0,0,0,0,0,0
			c0,0,0,0,0,0c0,0,0,0,0,0c0,0,0,0,0,0c-0.1,0-0.2,0.1-0.4,0.1c-1.9,0.4-3.8,0.7-5.7,0.9c-0.8,0.1-1.5,0.2-2.3,0.2
			c-0.2,0-0.5,0-0.7,0c-0.9,0-1.7,0-2.6,0c-0.1,0-0.2,0-0.2,0c-1.3-0.1-2.6-0.4-3.8-0.7c-0.7-0.2-1.4-0.3-2.1-0.5
			c-0.6-0.1-1.1-0.2-1.7-0.4c-0.9-0.5-1.9-1-2.7-1.6c-0.7-0.6-1.2-1.3-1.6-2.1c-0.3-0.6-0.4-1.1-0.6-1.7c-0.3-1.3-0.4-2.6-0.6-3.9
			c-0.1-0.6-0.1-1.1-0.1-1.7c0-0.4,0-0.8,0-1.2c0-0.2,0-0.4,0.1-0.7c0.1-0.3,0.2-0.7,0.5-1c0.2-0.2,0.5-0.5,0.8-0.6
			c0.8-0.3,1.5,0,2.1,0.5c0,0,0.1,0.1,0.1,0.1c0.3,0.1,0.5,0.2,0.8,0.3c0.5,0.2,0.9,0.4,1.4,0.6c0.4,0.1,0.7,0.2,1.1,0.3
			c0.4,0.1,0.9,0.3,1.3,0.4c1.2,0.4,2.4,0.6,3.6,0.8c0.6,0.1,1.3,0.1,1.9,0.2c0.6,0,1.2,0.1,1.8,0.1c1.1,0,2.3,0.1,3.4,0
			c1.2,0,2.4-0.1,3.7-0.2c1.3-0.1,2.6-0.2,4-0.4c1.3-0.1,2.6-0.2,3.9-0.5c2.5-0.4,5-0.9,7.5-1.5c0,0,0,0,0,0c0.1,0,0.2,0,0.3-0.1
			c0,0-0.1,0-0.1,0c0.1,0,0.1,0,0.1,0c0,0,0.1,0,0.1,0c0.4-0.1,0.8-0.2,1.2-0.3c1.3-0.3,2.5-0.7,3.8-1.1c1.2-0.3,2.4-0.8,3.6-1.2
			c1.2-0.4,2.3-0.8,3.5-1.3c1.1-0.4,2.2-0.9,3.3-1.4c0.4-0.2,0.8-0.5,1.3-0.7c0.5-0.3,1-0.6,1.6-0.9c0.2-0.1,0.5-0.2,0.8-0.2
			c0.2,0,0.5-0.1,0.8,0c0.3,0.1,0.6,0.2,0.8,0.4c0.2,0.2,0.4,0.5,0.5,0.7c0.2,0.4,0.3,0.9,0.4,1.3c0,0.2,0.1,0.4,0.1,0.5
			C138.8,225.8,138.8,226.1,138.8,226.4z"/>
		<polygon class="st1" points="104.1,243.9 104.1,243.9 104.1,243.9 		"/>
		<path class="st0" d="M137.5,242.5c0,0.3,0,0.7-0.1,1c-0.1,0.4-0.2,0.7-0.4,1c-0.2,0.3-0.4,0.6-0.6,0.9c-0.2,0.3-0.4,0.5-0.5,0.8
			c-0.2,0.3-0.4,0.5-0.5,0.8c-0.2,0.3-0.5,0.5-0.7,0.8c0,0-0.1,0.1-0.1,0.1c-0.3,0.2-0.5,0.5-0.8,0.7c-0.3,0.2-0.6,0.4-0.9,0.7
			c-0.6,0.4-1.2,0.8-1.9,1.2c-0.6,0.4-1.2,0.7-1.8,1c-0.6,0.4-1.2,0.7-1.7,1.1c-1.2,0.8-2.5,1.4-3.8,2c-0.6,0.3-1.2,0.6-1.8,0.9
			s-1.3,0.5-1.9,0.8c-0.6,0.3-1.2,0.6-1.9,0.8c-0.6,0.2-1.3,0.5-1.9,0.7c-0.3,0.1-0.7,0.2-1,0.3c-0.3,0.1-0.6,0.2-1,0.4
			c-0.3,0.1-0.6,0.2-0.9,0.3c-0.3,0.1-0.7,0.2-1,0.3c-0.6,0.2-1.3,0.4-1.9,0.5c-0.7,0.2-1.4,0.4-2.1,0.5c-0.7,0.2-1.5,0.3-2.2,0.5
			c-0.7,0.1-1.4,0.3-2,0.4c-0.7,0.1-1.4,0.2-2.1,0.3c-0.7,0.1-1.3,0.1-2,0.1c-0.7,0-1.3,0-2,0c-0.7,0-1.5,0-2.2-0.1
			c-0.7,0-1.4-0.1-2.1-0.3c-0.3-0.1-0.7-0.2-1-0.2c-0.3-0.1-0.6-0.1-0.9-0.2c0,0,0,0,0,0c0,0-0.1,0-0.1,0c-1-0.3-1.9-0.7-2.8-1.1
			c-0.5-0.2-1-0.5-1.5-0.8c-0.4-0.3-0.8-0.7-1.2-1c-0.3-0.3-0.5-0.5-0.8-0.8c-0.2-0.3-0.4-0.5-0.6-0.8c-0.4-0.6-0.7-1.2-0.9-1.9
			c-0.1-0.3-0.2-0.6-0.4-1c-0.1-0.3-0.2-0.6-0.3-0.9c-0.1-0.3-0.2-0.7-0.3-1c-0.1-0.3-0.2-0.7-0.3-1.1c0-0.2,0-0.5,0-0.7
			c0-0.1,0-0.1,0-0.2c0-0.1,0-0.2,0-0.2c0-0.1,0.1-0.3,0.2-0.4c0.1-0.1,0.1-0.1,0.2-0.2c0.1,0,0.2-0.1,0.2-0.1c0.1,0,0.2,0,0.3-0.1
			c0.1,0,0.3,0,0.4,0c0.1,0,0.3,0,0.4,0.1c0.7,0.1,1.3,0.3,2,0.4c0.7,0.1,1.3,0.3,2,0.3c0.7,0.1,1.3,0.1,2,0.2c1.1,0,2.2,0,3.4,0
			c1.1,0,2.2,0,3.3-0.1c0.7,0,1.5-0.1,2.2-0.1c0.7-0.1,1.4-0.1,2.1-0.2c0.7-0.1,1.4-0.2,2.1-0.3c0.7-0.1,1.4-0.2,2.1-0.2
			c0.7-0.1,1.4-0.2,2.1-0.3c0.7-0.1,1.4-0.3,2-0.4c0.7-0.1,1.4-0.3,2-0.4c0.7-0.1,1.3-0.2,2-0.4c0.6-0.1,1.3-0.3,1.9-0.5
			c0.6-0.2,1.3-0.3,1.9-0.5c0.7-0.2,1.3-0.4,2-0.5c0.7-0.2,1.3-0.3,2-0.5c0.6-0.2,1.3-0.4,1.9-0.6c0.7-0.2,1.3-0.4,2-0.6
			c0.3-0.1,0.6-0.2,1-0.4c0.2-0.1,0.5-0.3,0.7-0.4c0.6-0.3,1.1-0.6,1.7-0.9c0.5-0.3,1-0.6,1.5-0.9c0.6-0.3,1.1-0.6,1.7-0.8
			c0.6-0.2,1.2-0.4,1.9-0.5c0.6-0.1,1.2,0,1.8,0.1c0.3,0.1,0.7,0.2,0.9,0.5c0.2,0.2,0.3,0.3,0.4,0.6c0.1,0.2,0.2,0.5,0.3,0.8
			c0,0.2,0.1,0.4,0.1,0.6C137.5,242.4,137.5,242.5,137.5,242.5z"/>
		<path class="st0" d="M140.3,258.8c0,0.2,0,0.3,0,0.5c0,0.2-0.1,0.4-0.2,0.7c-0.1,0.3-0.2,0.5-0.4,0.8c-0.2,0.3-0.5,0.7-0.8,0.9
			c-0.3,0.2-0.5,0.5-0.8,0.7c-0.6,0.5-1.2,1-1.8,1.5c-0.6,0.5-1.1,1-1.7,1.5c-0.6,0.5-1.3,1-1.9,1.5c-0.6,0.5-1.3,0.9-2,1.2
			c-1.3,0.8-2.6,1.6-3.8,2.5c-0.6,0.5-1.3,0.9-1.9,1.4c-0.6,0.5-1.3,0.9-1.9,1.3c-0.8,0.4-1.5,0.8-2.3,1.1c-0.7,0.3-1.4,0.7-2.1,1
			c-1.4,0.6-2.9,1.1-4.4,1.6c-0.8,0.2-1.5,0.4-2.3,0.6c-0.8,0.2-1.6,0.4-2.5,0.5c-0.8,0.1-1.6,0.2-2.4,0.2c-0.8,0-1.5,0-2.2,0h-0.1
			c0,0-0.1,0-0.1,0c0,0,0,0,0,0c-0.5,0-0.9,0-1.4-0.1c-0.4,0-0.8-0.1-1.3-0.1c-0.4,0-0.7-0.1-1.1-0.1c-0.4-0.1-0.7-0.1-1.1-0.2
			c-0.8-0.2-1.6-0.4-2.4-0.6c-0.7-0.3-1.4-0.5-2.1-0.9c-0.3-0.2-0.7-0.3-1-0.5c-0.4-0.2-0.7-0.5-1-0.7c-0.3-0.3-0.7-0.6-0.9-1
			c-0.2-0.3-0.5-0.6-0.7-0.9c-0.2-0.3-0.4-0.6-0.6-1c-0.2-0.3-0.5-0.6-0.7-0.9c-0.5-0.7-0.8-1.4-1.2-2.1c-0.2-0.3-0.3-0.7-0.5-1
			c-0.1-0.3-0.3-0.6-0.2-1c0-0.2,0.1-0.3,0.3-0.4c0.1,0,0.1-0.1,0.2-0.1c0.1,0,0.1,0,0.2,0c0.2,0,0.3,0,0.5,0
			c0.7,0.1,1.4,0.2,2.1,0.3c0.7,0.1,1.5,0.3,2.2,0.4c1.5,0.2,3.1,0.3,4.7,0.4c0.9,0,1.8,0,2.7,0.1c0.5,0,1.1,0,1.6,0.1
			c0.3,0,0.6,0,0.8,0c0.2,0,0.4,0,0.5,0c0.6,0,1.2,0,1.7-0.1c0.8-0.1,1.6-0.2,2.3-0.2c0.8-0.1,1.6-0.2,2.3-0.3
			c0.7-0.1,1.4-0.2,2.1-0.4c0.9-0.2,1.8-0.5,2.7-0.8c0.9-0.2,1.8-0.5,2.7-0.7c0,0,0,0,0,0h0c0,0,0,0,0,0c0,0,0.1,0,0.1,0
			c1.4-0.4,2.8-0.9,4.2-1.3c0.7-0.2,1.4-0.5,2-0.8c0.7-0.3,1.3-0.6,1.9-0.9c0.9-0.5,1.8-1.2,2.7-1.8c0.6-0.4,1.3-0.8,1.9-1.2
			c0.7-0.4,1.3-0.8,2.1-1.2c0.4-0.2,0.7-0.3,1.1-0.4c0.4-0.1,0.7-0.2,1.1-0.3c0.4-0.1,0.8-0.2,1.2-0.2c0.4,0,0.8,0,1.1,0.1
			c0.2,0.1,0.4,0.1,0.6,0.2c0.1,0.1,0.2,0.2,0.3,0.2c0.4,0.1,0.7,0.2,1,0.5S140.2,258.4,140.3,258.8z"/>
		<path class="st2" d="M153.3,119.4c-0.3,1.2-0.5,2.3-0.7,3.5c-0.2,0.8-0.4,1.6-0.5,2.4c0.4-1.4,0.8-2.8,1.1-4.3
			c0.2-1.1,0.4-2.2,0.6-3.3C153.6,118.2,153.4,118.8,153.3,119.4z M57.6,172.2C57.6,172.3,57.6,172.3,57.6,172.2
			C57.6,172.3,57.6,172.3,57.6,172.2c0,0.1,0,0.1,0,0.1c0.1,0.1,0.2,0.2,0.2,0.3C57.7,172.5,57.6,172.4,57.6,172.2z M58.1,173.2
			C58.1,173.2,58.1,173.2,58.1,173.2C58.1,173.2,58.1,173.2,58.1,173.2C58.1,173.2,58.1,173.2,58.1,173.2z"/>
		<path class="st2" d="M57.8,172.6c-0.1-0.1-0.2-0.2-0.2-0.3c0,0,0,0,0,0c0,0,0,0,0,0c0,0,0,0,0-0.1
			C57.6,172.4,57.7,172.5,57.8,172.6z"/>
		<path class="st2" d="M57.6,172.2C57.6,172.3,57.6,172.3,57.6,172.2C57.6,172.3,57.6,172.3,57.6,172.2c0,0.1,0,0.1,0,0.1
			c0.1,0.1,0.2,0.2,0.2,0.3C57.7,172.5,57.6,172.4,57.6,172.2z"/>
		<path class="st2" d="M57.8,172.6c-0.1-0.1-0.2-0.2-0.2-0.3c0,0,0,0,0,0c0,0,0,0,0,0c0,0,0,0,0-0.1
			C57.6,172.4,57.7,172.5,57.8,172.6z"/>
		<path class="st2" d="M58.1,173.2C58.1,173.2,58.1,173.2,58.1,173.2S58.1,173.2,58.1,173.2S58.1,173.2,58.1,173.2z"/>
		<path class="st2" d="M157,86.9c-0.1-1-0.2-2-0.3-2.9c-0.1-1-0.2-2-0.3-3c0-0.3-0.1-0.5-0.1-0.8c-0.1-1-0.3-2.1-0.5-3.1
			c-0.2-1.1-0.4-2.3-0.6-3.4c-0.2-1.2-0.6-2.5-0.9-3.7c-0.1-0.5-0.2-1-0.4-1.6c-0.1-0.5-0.3-1-0.4-1.6c-0.3-1.1-0.6-2.1-1-3.2
			c-0.2-0.6-0.5-1.2-0.7-1.8c-0.2-0.6-0.5-1.1-0.7-1.7c-0.8-2-1.8-4-2.7-6c-0.5-1.1-1-2.1-1.5-3.1c-0.5-1-1-2.1-1.6-3.1
			c-0.3-0.5-0.6-1-0.9-1.5c-0.3-0.5-0.6-1-1-1.5c-0.6-0.9-1.2-1.8-1.9-2.7c-2.6-3.6-5.5-6.9-8.6-10.2c-0.8-0.9-1.6-1.7-2.4-2.5
			c-0.5-0.4-0.9-0.9-1.3-1.3c-0.4-0.4-0.9-0.8-1.4-1.2c-0.4-0.3-0.8-0.6-1.1-0.9c-0.4-0.3-0.8-0.6-1.2-0.9c-1-0.7-2-1.4-3-2.1
			c-1.8-1.2-3.5-2.6-5.2-3.9c-1.8-1.4-3.8-2.6-5.9-3.6c-0.5-0.3-1.1-0.5-1.7-0.8c-0.6-0.3-1.2-0.5-1.8-0.8c-0.9-0.4-1.9-0.8-2.8-1.2
			c-1-0.4-2.1-0.8-3.1-1.2c-0.6-0.2-1.2-0.5-1.9-0.6c-0.6-0.2-1.2-0.4-1.9-0.6c-0.9-0.3-1.9-0.5-2.9-0.7c-0.5-0.1-1.1-0.3-1.7-0.4
			c-0.6-0.1-1.3-0.2-1.9-0.3c-0.6-0.1-1.2-0.1-1.7-0.2c-0.6-0.1-1.1-0.1-1.7-0.1c-0.5,0-1.1-0.1-1.7-0.1c-1.6-0.3-3.3-0.4-5-0.4
			c-1.6,0-3.2,0.2-4.8,0.5c-0.8,0.2-1.6,0.3-2.4,0.5c-0.4,0.1-0.8,0.2-1.2,0.3c0,0,0,0,0,0c-0.6,0.1-1.1,0.2-1.7,0.3
			c-1.8,0.4-3.6,0.8-5.4,1.2c0,0,0,0,0,0c0,0-0.1,0-0.1,0c-0.1,0-0.2,0-0.3,0c-0.1,0-0.3,0-0.5,0.1c-0.3,0.1-0.7,0.1-1,0.2
			c-0.3,0.1-0.7,0.1-1,0.2c-0.3,0.1-0.7,0.1-1,0.2c-0.7,0.2-1.3,0.3-2,0.5c-0.7,0.2-1.4,0.4-2,0.6c-0.2,0.1-0.4,0.1-0.7,0.2
			c-0.2,0.1-0.4,0.2-0.6,0.2c-0.2,0.1-0.4,0.2-0.6,0.2c-0.2,0.1-0.4,0.2-0.7,0.3c-0.4,0.2-0.8,0.4-1.2,0.6c-0.2,0.1-0.4,0.2-0.6,0.4
			c-0.2,0.1-0.4,0.2-0.5,0.3c-0.2,0.1-0.4,0.2-0.7,0.3c-0.1,0-0.1,0-0.2,0.1c0,0-0.1,0-0.1,0.1c0,0-0.1,0-0.1,0
			c-0.2,0.1-0.4,0.2-0.7,0.4C51.4,15.9,51.2,16,51,16c-0.2,0.1-0.4,0.2-0.6,0.3c-0.2,0.1-0.5,0.2-0.7,0.3c-0.2,0.1-0.4,0.2-0.6,0.3
			c-0.4,0.2-0.8,0.5-1.1,0.7c-0.4,0.2-0.8,0.5-1.2,0.7c-0.5,0.3-1,0.5-1.5,0.8c-0.1,0-0.1,0.1-0.2,0.1c0,0,0,0,0,0c0,0,0,0,0,0
			c0,0,0,0,0,0l0,0c-0.1,0.1-0.2,0.1-0.4,0.2c-0.1,0.1-0.3,0.1-0.4,0.2c-0.3,0.2-0.6,0.4-0.8,0.5c-0.3,0.2-0.5,0.4-0.8,0.6
			c-0.3,0.2-0.6,0.4-0.8,0.6c-0.3,0.2-0.6,0.4-0.9,0.7c-0.3,0.2-0.6,0.4-0.9,0.7c-0.3,0.2-0.6,0.4-0.9,0.7c-0.2,0.1-0.3,0.3-0.5,0.5
			c0,0,0,0,0,0c0,0,0,0,0,0c-0.6,0.4-1.2,0.8-1.8,1.2c-0.4,0.3-0.9,0.7-1.3,1c-0.5,0.5-1.1,0.9-1.6,1.4c-0.3,0.3-0.6,0.5-0.9,0.8
			c-0.5,0.5-1,0.9-1.4,1.4c-0.8,0.8-1.5,1.5-2.3,2.3c-0.9,0.9-1.7,1.8-2.5,2.8c-0.7,0.8-1.4,1.7-2.2,2.5c-0.3,0.4-0.6,0.8-1,1.2
			c-0.3,0.4-0.6,0.8-0.9,1.2c-0.4,0.5-0.7,1-1.1,1.5c-0.4,0.5-0.8,1.1-1.1,1.7c-0.3,0.4-0.5,0.8-0.8,1.2c-0.3,0.5-0.6,1-0.9,1.5
			c-0.3,0.6-0.6,1.2-1,1.8c-0.3,0.5-0.5,1-0.8,1.5c-0.5,0.9-0.9,1.8-1.3,2.8c-0.5,1.1-0.9,2.2-1.3,3.4c-0.4,1.1-0.9,2.3-1.3,3.4
			c-0.4,1-0.7,2.1-1.1,3.1c-0.2,0.5-0.3,1-0.5,1.6c-0.2,0.5-0.3,1-0.5,1.5c-0.3,1.1-0.6,2.2-0.8,3.3c-0.1,0.7-0.3,1.4-0.4,2.1
			c-0.1,0.5-0.2,1-0.2,1.5c-0.1,0.5-0.2,1-0.2,1.5c-0.1,0.7-0.1,1.5-0.2,2.2c-0.1,1.1-0.1,2.2-0.2,3.3c-0.1,1.2,0,2.4,0,3.6
			c0,0.5,0.1,1.1,0.1,1.6c0,0.5,0,1,0.1,1.4c0.1,1.2,0.3,2.5,0.4,3.7c0.2,1.2,0.3,2.3,0.5,3.5c0.2,1.2,0.4,2.3,0.6,3.4
			c0.2,1.2,0.5,2.4,0.8,3.6c0.5,2.1,1.2,4.3,1.8,6.4c0.2,0.5,0.4,1.1,0.6,1.6c0.2,0.5,0.3,0.9,0.5,1.3c0.4,1,0.8,2.1,1.2,3.1
			c0.3,0.7,0.6,1.3,0.9,2c0.2,0.4,0.4,0.8,0.6,1.2c0.6,1.2,1.2,2.4,1.8,3.5c0.5,1.1,1.2,2.1,1.8,3.2c0.6,1,1.1,2,1.7,3
			c1.1,2,2.2,3.9,3.3,5.8c0.6,1,1.2,2,1.7,3c0.6,1,1.2,1.9,1.8,2.9c0.6,1,1.3,1.9,1.9,2.9c0.6,0.9,1.3,1.8,1.9,2.7
			c1.3,1.8,2.6,3.6,3.9,5.4c1.4,2,2.8,3.9,4.2,5.8c1.2,1.8,2.5,3.5,3.8,5.2c0.7,0.9,1.4,1.8,2.1,2.7c0.6,0.9,1.3,1.7,2,2.6
			c1.2,1.8,2.4,3.6,3.7,5.4c1.3,1.8,2.6,3.7,3.9,5.5c1.3,1.8,2.5,3.7,3.8,5.5c0.2,0.2,0.3,0.4,0.4,0.6c0,0,0,0,0,0
			c0.5,1,1.1,1.9,1.7,2.9c0,0.1,0.1,0.2,0.1,0.2c0.9,1.7,1.9,3.4,2.8,5.1c0.6,1.2,1.2,2.3,1.8,3.5c0.7,1.3,1.3,2.6,1.9,3.9
			c0.5,1.3,1.1,2.5,1.6,3.8c0.6,1.3,1,2.7,1.5,4c0.5,1.4,1.1,2.8,1.6,4.2c0.5,1.3,0.9,2.7,1.4,4c0.5,1.3,0.9,2.6,1.3,3.8
			c0.2,0.6,0.4,1.2,0.6,1.7c-0.6,1.4-0.4,3.2,0.5,4.5c1.5,2,4.3,2.4,6.3,1c0.4-0.2,0.7-0.5,1-0.8c0.8-0.7,1.3-1.3,1.8-2.3
			c0.6-1.1,1-2.3,1.2-3.6c0.1-1.1,0.1-2.2,0-3.3c-0.1-1.4-0.3-2.8-0.6-4.2c-0.7-3.6-1.7-7.2-2.9-10.6c-0.5-1.5-1.2-3-1.9-4.5
			c-0.7-1.5-1.4-3.1-2.1-4.6c-1.3-3-2.7-5.9-4.1-8.8c-0.9-2-1.8-3.9-2.6-5.9c-0.9-2-1.9-4-2.8-6c-1-2.1-1.9-4.2-2.9-6.2
			c-1.1-2.2-2.3-4.4-3.5-6.6c-1.4-2.7-2.8-5.4-4.5-7.9c-0.8-1.2-1.6-2.3-2.3-3.5c-0.6-1-1.2-2-1.8-3c-0.7-1.4-1.5-2.8-2.2-4.2
			c-0.9-1.8-1.9-3.5-2.9-5.2c-1-1.9-1.9-3.7-2.9-5.6c0,0,0,0,0,0c0-0.1-0.1-0.1-0.1-0.2c0,0,0-0.1-0.1-0.1c-0.1-0.1-0.1-0.2-0.2-0.3
			c0-0.1-0.1-0.2-0.1-0.2c0,0,0,0,0,0c-0.8-1.4-1.5-2.8-2.3-4.1c-1.5-2.8-2.8-5.7-3.9-8.7c-1.2-3.3-2.1-6.6-2.9-10
			c-1-4.2-1.6-8.5-2.3-12.8c-0.4-2.3-0.6-4.7-0.9-7C35.2,81.2,35,79.1,35,77c0.1-1.8,0.3-3.6,0.6-5.3c0.3-1.9,0.6-3.8,1.1-5.7
			c0.6-1.7,1.3-3.4,1.9-5.1c0.3-0.9,0.7-1.8,1-2.7c0.5-1,1.1-1.9,1.6-2.9c0.7-1.1,1.4-2.1,2.2-3c1.1-1.2,2.2-2.4,3.4-3.5
			c2-2,3.9-4.2,6-6.2c1.3-1.2,2.6-2.3,4.1-3.2c1.5-1,3-1.9,4.6-2.8c1-0.5,1.9-0.9,2.9-1.4c1.1-0.5,2.2-1,3.4-1.5
			c1.2-0.4,2.4-0.7,3.6-1c1.1-0.3,2.2-0.5,3.3-0.8c2.8-0.6,5.8-0.7,8.7-0.7c2.4,0.2,4.8,0.8,7.2,1.3c2,0.5,4.1,0.9,6.2,1.4
			c1.7,0.6,3.3,1.2,4.9,2c0.9,0.4,1.8,0.8,2.8,1.3c0.6,0.3,1.1,0.6,1.6,1c2.6,1.7,5,3.7,7.5,5.6c2.3,1.7,4.5,3.6,6.5,5.6
			c1.2,1.3,2.3,2.6,3.4,3.9c1.2,1.5,2.5,2.9,3.6,4.5c2.3,3,4.4,6.1,6.3,9.3c1.5,3,2.5,6.3,3.3,9.6c0.4,1.7,0.8,3.5,1,5.3
			c0.3,2,0.5,3.9,0.7,5.9c0.4,3.5,0.5,7.1,0.4,10.7c-0.3,3.8-0.9,7.6-1.9,11.3c-0.5,1.6-1.1,3.2-1.6,4.8c-0.5,1.7-0.9,3.5-1.3,5.2
			c-0.4,1.6-0.6,3.3-1,5c-0.3,1.6-0.7,3.1-0.9,4.7c-0.6,3.7-1,7.5-1.4,11.2c-0.2,0.9-0.5,1.9-0.7,2.8c-0.4,1.9-0.9,3.8-1.4,5.6
			c-1.2,3.5-2.5,6.9-3.2,10.5c-0.7,3.3-1.2,6.6-1.8,9.9c-0.5,3.3-1,6.7-1.6,10c-0.3,1.6-0.6,3.3-0.9,4.9c-0.3,1.6-0.5,3.3-0.8,4.9
			c-0.4,3.1-0.9,6.1-1,9.2c-0.2,3.3-0.3,6.7,0.2,10c0.1,0.8,0.3,1.7,0.6,2.5c0.2,0.7,0.5,1.4,0.9,1.9c0.5,0.5,1.3,0.8,2,0.5
			c0.6-0.3,0.9-0.8,1.1-1.4c0.3-0.1,0.6-0.2,0.9-0.4c0.8-0.6,1-1.5,1.2-2.4c0.1-0.6,0.2-1.2,0.4-1.8c0.2-1.2,0.4-2.4,0.6-3.6
			c0.2-1.1,0.4-2.2,0.6-3.3c0.2-1.2,0.3-2.4,0.5-3.6c0.1-1.3,0.5-2.5,0.7-3.8c0.2-1.2,0.4-2.5,0.7-3.7c0.3-1.2,0.7-2.4,1-3.7
			c0.3-1.2,0.6-2.4,1-3.7c0.3-0.9,0.6-1.7,0.9-2.5c0.4-1.1,0.8-2.3,1.2-3.4c0.4-1,0.9-2.1,1.2-3.1c0.4-1.2,0.8-2.4,1.2-3.6
			c0.7-2.1,1.6-4.1,2.4-6.2c0.4-1.1,0.8-2.2,1.2-3.2c0.5-1,0.8-2.1,1.2-3.2c0.4-1.2,0.9-2.4,1.4-3.5c0.5-1.1,1-2.2,1.5-3.4
			c0.4-1.1,0.8-2.2,1.2-3.2c0.5-1.3,1-2.6,1.4-3.9c0.3-1.1,0.6-2.1,0.9-3.2c0-0.1,0-0.1,0.1-0.2c0.3-0.9,0.6-1.7,1-2.6
			c0.4-1,0.7-2,1-3c0.8-2.5,1.7-4.9,2.3-7.4c0.1-0.4,0.2-0.7,0.2-1.1c0.2-0.8,0.4-1.6,0.5-2.4c0.2-1.2,0.5-2.4,0.7-3.5
			c0.1-0.6,0.3-1.1,0.4-1.7c0.2-1.2,0.5-2.5,0.7-3.7c0.2-1.2,0.5-2.4,0.8-3.6c0.2-1,0.5-2,0.7-3c0.4-2.1,0.8-4.2,1.1-6.3
			c0.1-1.2,0.3-2.4,0.4-3.7c0.1-0.5,0.1-1.1,0.1-1.6c0-0.6,0-1.3,0-1.9C157.4,91.5,157.2,89.2,157,86.9z M58.1,173.2
			C58.1,173.2,58.1,173.2,58.1,173.2S58.1,173.2,58.1,173.2S58.1,173.2,58.1,173.2z M57.8,172.6c-0.1-0.1-0.2-0.2-0.2-0.3
			c0,0,0,0,0,0c0,0,0,0,0,0c0,0,0,0,0-0.1C57.6,172.4,57.7,172.5,57.8,172.6z"/>
		<path class="st2" d="M154.4,114c-0.2,1.2-0.5,2.4-0.7,3.7c0.2-0.6,0.3-1.1,0.5-1.7c0.3-1.2,0.5-2.3,0.7-3.5
			c0.1-0.7,0.2-1.4,0.3-2.1C154.9,111.6,154.7,112.8,154.4,114z"/>
		<path class="st2" d="M156.4,80.2c0-0.4-0.1-0.8-0.1-1.2c-0.3-3.4-1-6.8-2.1-10.1c-0.1-0.2-0.1-0.4-0.2-0.6c0.1,0.5,0.3,1,0.4,1.6
			c0.3,1.2,0.6,2.5,0.9,3.7c0.2,1.1,0.4,2.3,0.6,3.4C156,78,156.2,79.1,156.4,80.2c0,0.2,0,0.5,0,0.8
			C156.4,80.7,156.4,80.4,156.4,80.2z"/>
	</g>
	<g>
		<path class="st0" d="M210.7,132.5h11.2v7c1.1-1.7,5.9-8.5,14.6-8.5c3.4,0,7.1,1.2,9.9,2.6l-5.3,10.1c-2.5-1.7-4.8-2.2-6.5-2.2
			c-4.5,0-7.3,1.9-9,4c-1.9,2.5-3.7,6.8-3.7,17.4v33.9h-11.2V132.5z"/>
		<path class="st0" d="M309.9,180.4c-1.9,3.6-4.6,7.4-7.9,10.4c-5.9,5.3-13.2,7.9-21.4,7.9c-15.5,0-31.8-9.8-31.8-33.6
			c0-19.2,11.8-34.1,31.2-34.1c12.6,0,20.5,6.2,24.3,11.8c4,5.7,6.4,15.7,6,24.2h-50.1c0.2,13.3,9.3,21.9,20.5,21.9
			c5.3,0,9.5-1.6,13.2-4.7c2.9-2.5,5.3-5.7,6.7-8.8L309.9,180.4z M298.9,157.6c-1.9-10.1-9.5-16.7-18.9-16.7
			c-9.5,0-17.2,7.1-18.9,16.7H298.9z"/>
		<path class="st0" d="M353.9,147.4c-1.6-3.7-4.8-6.5-9-6.5c-4,0-7.8,2.3-7.8,7.3c0,4.7,3.1,6,10.4,9.1c9.3,3.9,13.6,6.8,16.1,9.9
			c2.8,3.4,3.4,6.8,3.4,10.4c0,13.5-9.8,21.1-22.2,21.1c-2.6,0-17-0.3-22.5-16.4l9.6-4c1.2,3.4,5,10.5,13,10.5
			c7.3,0,10.5-5.4,10.5-10.2c0-6-4.3-8.1-10.4-10.7c-7.8-3.4-12.7-5.9-15.7-9.5c-2.5-3.1-2.9-6.2-2.9-9.5c0-11.3,7.9-18,18.8-18
			c3.4,0,12.6,0.6,17.7,11.6L353.9,147.4z"/>
		<path class="st0" d="M378,164.9c0-19.5,14.4-33.9,34.1-33.9c19.7,0,34.1,14.4,34.1,33.9c0,19.5-14.6,33.8-34.1,33.8
			S378,184.4,378,164.9z M389.4,164.9c0,15.8,11.2,23.9,22.6,23.9c11.6,0,22.6-8.2,22.6-23.9c0-15.8-10.8-24-22.6-24
			C400.3,140.9,389.4,149.2,389.4,164.9z"/>
		<path class="st0" d="M474.4,170c0,4.5,0,9.8,3.1,13.8c1.7,2.2,5.1,5,11.3,5c6.2,0,9.6-2.8,11.3-5c3.1-4,3.1-9.3,3.1-13.8v-37.5
			h11.2v38.7c0,7.9-0.8,13.8-5.9,19.4c-5.7,6-13.3,8.1-19.7,8.1s-13.9-2-19.7-8.1c-5.1-5.6-5.9-11.5-5.9-19.4v-38.7h11.2V170z"/>
		<path class="st0" d="M535.4,132.5h11.2v7c1.1-1.7,5.9-8.5,14.6-8.5c3.4,0,7.1,1.2,9.9,2.6l-5.3,10.1c-2.5-1.7-4.8-2.2-6.5-2.2
			c-4.5,0-7.3,1.9-9,4c-1.9,2.5-3.7,6.8-3.7,17.4v33.9h-11.2V132.5z"/>
		<path class="st0" d="M628,150.5c-5.9-7.4-14.4-9.6-20.1-9.6c-11.9,0-22.8,8.4-22.8,24c0,15.7,11.2,23.9,22.6,23.9
			c6.7,0,14.9-2.9,20.8-10.1V192c-7,5.1-14.4,6.7-20.5,6.7c-20,0-34.4-14.3-34.4-33.6c0-19.7,14.6-34.1,34.4-34.1
			c10.2,0,16.9,4,20,6.2V150.5z"/>
		<path class="st0" d="M702.5,180.4c-1.9,3.6-4.6,7.4-7.9,10.4c-5.9,5.3-13.2,7.9-21.4,7.9c-15.5,0-31.8-9.8-31.8-33.6
			c0-19.2,11.8-34.1,31.2-34.1c12.6,0,20.5,6.2,24.3,11.8c4,5.7,6.4,15.7,6,24.2h-50.1c0.2,13.3,9.3,21.9,20.5,21.9
			c5.3,0,9.5-1.6,13.2-4.7c2.9-2.5,5.3-5.7,6.7-8.8L702.5,180.4z M691.5,157.6c-1.9-10.1-9.5-16.7-18.9-16.7
			c-9.5,0-17.2,7.1-18.9,16.7H691.5z"/>
		<path class="st0" d="M806.5,150.5c-5.9-7.4-14.4-9.6-20.1-9.6c-11.9,0-22.8,8.4-22.8,24c0,15.7,11.2,23.9,22.6,23.9
			c6.7,0,14.9-2.9,20.8-10.1V192c-7,5.1-14.4,6.7-20.5,6.7c-20,0-34.4-14.3-34.4-33.6c0-19.7,14.6-34.1,34.4-34.1
			c10.2,0,16.9,4,20,6.2V150.5z"/>
		<path class="st0" d="M881.1,180.4c-1.9,3.6-4.6,7.4-7.9,10.4c-5.9,5.3-13.2,7.9-21.4,7.9c-15.5,0-31.8-9.8-31.8-33.6
			c0-19.2,11.8-34.1,31.2-34.1c12.6,0,20.5,6.2,24.3,11.8c4,5.7,6.4,15.7,6,24.2h-50.1c0.2,13.3,9.3,21.9,20.5,21.9
			c5.3,0,9.5-1.6,13.2-4.7c2.9-2.5,5.3-5.7,6.7-8.8L881.1,180.4z M870.1,157.6c-1.9-10.1-9.5-16.7-18.9-16.7
			c-9.5,0-17.2,7.1-18.9,16.7H870.1z"/>
		<path class="st0" d="M898.6,132.5h11.2v7.4c2-2.6,7.8-9,18.4-9c7.6,0,14.6,3.1,18.4,8.8c3.3,4.8,3.7,10.1,3.7,17.2v39.8h-11.2
			v-39.5c0-3.9-0.3-8.4-2.9-11.8c-2.2-2.8-5.6-4.7-10.5-4.7c-3.9,0-8.1,1.1-11.3,5c-4.3,5.1-4.6,12.7-4.6,17.4v33.6h-11.2V132.5z"/>
		<path class="st0" d="M982.9,142.7v54.1h-11.2v-54.1h-6.8v-10.2h6.8v-23.2h11.2v23.2h11.2v10.2H982.9z"/>
		<path class="st0" d="M1061.6,180.4c-1.9,3.6-4.6,7.4-7.9,10.4c-5.9,5.3-13.2,7.9-21.4,7.9c-15.5,0-31.8-9.8-31.8-33.6
			c0-19.2,11.8-34.1,31.2-34.1c12.6,0,20.5,6.2,24.3,11.8c4,5.7,6.4,15.7,6,24.2H1012c0.2,13.3,9.3,21.9,20.5,21.9
			c5.3,0,9.5-1.6,13.2-4.7c2.9-2.5,5.3-5.7,6.7-8.8L1061.6,180.4z M1050.6,157.6c-1.9-10.1-9.5-16.7-18.9-16.7
			c-9.5,0-17.2,7.1-18.9,16.7H1050.6z"/>
		<path class="st0" d="M1079.2,132.5h11.2v7c1.1-1.7,5.9-8.5,14.6-8.5c3.4,0,7.1,1.2,9.9,2.6l-5.3,10.1c-2.5-1.7-4.8-2.2-6.5-2.2
			c-4.5,0-7.3,1.9-9,4c-1.9,2.5-3.7,6.8-3.7,17.4v33.9h-11.2V132.5z"/>
	</g>
</g>
</svg>
